<svg xmlns="http://www.w3.org/2000/svg" width="218" height="56" fill="none" viewBox="0 0 218 56"><rect width="218" height="56" fill="#000" fill-opacity="0"/><rect width="148.775" height="36.737" fill="#000" fill-opacity="0" transform="translate(69.2251 5.84668)"/><path fill="#424268" d="M217.915 26.2069C217.418 24.4958 215.47 23.9633 214.668 27.9937C213.865 32.024 212.261 36.2813 211.115 36.661C209.969 37.0408 209.243 34.7987 210.35 29.5141C211.458 24.2295 211.191 23.812 209.547 23.9255C207.904 24.0389 206.071 23.9255 206.071 23.9255C206.72 22.5941 206.53 20.0479 204.351 20.5805C202.174 21.113 201.525 22.5956 201.639 23.6214C201.753 24.6471 202.25 25.3939 202.25 25.3939C202.25 25.3939 201.219 28.0236 202.518 28.3891C203.816 28.7531 204.848 26.511 204.848 26.511L206.224 26.6245C206.224 26.6245 204.237 35.1784 206.033 37.8396C207.828 40.5008 210.732 41.413 213.711 37.118C216.693 32.8213 218.412 27.918 217.915 26.2069Z"/><path fill="#424268" d="M187.468 22.2537C183.877 27.5382 185.787 29.0965 183.342 32.67C180.898 36.2434 180.171 37.1557 180.019 34.3433C179.867 31.5292 179.905 27.1207 180.249 23.6985C180.592 20.2763 180.936 18.0342 180.936 18.0342C180.936 18.0342 183.075 18.4549 184.335 17.8641C185.595 17.2732 186.474 15.7906 185.06 15.373C183.646 14.9555 181.278 14.9161 181.278 14.9161C181.278 14.9161 182.118 11.3048 180.591 10.506C179.063 9.70717 176.694 10.2775 176.083 12.3684C175.472 14.4592 175.548 15.0674 175.548 15.0674C175.548 15.0674 171.995 14.6876 171.422 15.904C170.849 17.1204 172.339 18.4896 173.982 18.2989C175.625 18.1083 175.625 18.1083 175.625 18.1083C175.625 18.1083 176.161 23.6213 174.861 26.4716C173.562 29.3234 171.919 33.1631 170.659 33.39C169.398 33.6185 168.482 33.2766 169.283 28.1433C170.086 23.0115 166.533 22.0221 164.546 24.7983C162.559 27.5729 161.566 30.4626 161.566 30.4626C161.566 30.4626 161.718 26.5472 162.253 24.6454C162.788 22.7453 162.75 21.5273 162.75 21.5273C161.985 19.9312 157.631 18.9418 156.867 22.3262C156.647 23.2983 156.526 24.8455 156.473 26.5834C155.646 28.5403 154.557 30.9384 153.697 32.191C152.093 34.5292 150.144 37.4188 148.292 37.9309C145.804 38.6194 144.892 37.1715 144.701 32.7409C144.565 29.5865 145.331 29.2241 145.331 29.2241C145.331 29.2241 149.514 28.939 151.118 27.6281C152.722 26.3172 153.984 22.4963 151.978 19.5878C149.972 16.6792 146.018 14.6829 143.325 18.7322C142.576 19.8588 141.924 21.4769 141.412 23.3156V23.3141C141.412 23.3141 138.798 32.2477 137.195 33.7682C135.591 35.2886 134.75 36.2009 135.246 32.2477C135.743 28.2945 137.079 23.2762 136.927 21.4123C136.773 19.55 134.788 17.5726 132.152 20.0431C129.516 22.5137 126.001 28.5971 126.001 28.5971C126.001 28.5971 127.377 24.3398 126.688 23.1234C126.001 21.907 123.021 21.8692 121.148 24.5304C119.277 27.1916 118.092 30.3475 118.092 30.3475C118.092 30.3475 118.857 25.5577 119.201 22.2883C119.544 19.019 119.698 17.6876 117.825 17.8782C115.953 18.0689 113.78 19.8856 113.507 22.8587C113.453 23.4511 113.412 24.3744 113.382 25.4758C112.54 27.5367 111.178 30.6879 110.146 32.191C108.542 34.5292 106.593 37.4188 104.741 37.9309C102.253 38.6194 101.341 37.1715 101.15 32.7409C101.014 29.5865 101.78 29.2241 101.78 29.2241C101.78 29.2241 105.963 28.939 107.567 27.6281C109.171 26.3172 110.432 22.4963 108.426 19.5878C106.42 16.6792 102.467 14.6829 99.7739 18.7322C99.0013 19.8934 98.3331 21.5777 97.8138 23.4874V23.4842C97.8138 23.4842 97.8122 23.4937 97.8075 23.511C97.7061 23.8844 97.6111 24.2641 97.5209 24.6517C96.8575 27.2279 95.1808 33.3065 93.7179 35.0586C91.8464 37.3022 89.9354 40.9513 90.3566 25.1748C90.7366 10.9251 92.266 8.44669 92.266 8.44669C92.342 7.38159 91.1577 5.67206 89.3243 5.86113C87.4908 6.05178 86.4966 6.39368 86.039 16.7722C85.9028 19.8698 85.7144 23.1581 85.6068 26.3061C84.7676 28.3087 83.615 30.8769 82.7157 32.1894C81.1118 34.5276 79.1628 37.4173 77.3104 37.9293C74.8231 38.6179 73.9111 37.1699 73.7195 32.7393C73.5834 29.585 74.3497 29.2226 74.3497 29.2226C74.3497 29.2226 78.5327 28.9374 80.1365 27.6265C81.7404 26.3156 83.0023 22.4947 80.9963 19.5862C78.9902 16.6776 75.0368 14.6813 72.3437 18.7306C69.6505 22.7799 68.2113 33.1616 70.0511 37.4346C71.484 40.7607 76.1831 42.2811 79.0473 40.4566C81.7167 38.7565 84.1359 35.7203 85.5672 33.3758C85.7271 37.5827 86.3303 40.7954 87.8724 41.7486C91.1957 43.8016 94.5966 41.9014 96.0864 37.9089C96.4332 36.9792 96.6992 36.1284 96.9066 35.3674C97.0412 36.1489 97.2296 36.85 97.4813 37.4346C98.9142 40.7607 103.613 42.2811 106.477 40.4566C109.343 38.6321 111.921 35.2666 113.297 32.8717C113.308 32.8527 113.317 32.8323 113.327 32.8134C113.347 35.4667 113.411 37.6914 113.507 38.1373C113.737 39.2024 117.671 41.1782 118.436 39.0118C119.201 36.8453 120.461 29.5834 121.416 29.2037C122.37 28.8239 122.562 32.3218 122.37 34.3732C122.179 36.4262 122.714 38.7077 124.969 36.8437C127.223 34.9814 128.903 29.8481 129.935 28.1385C130.966 26.4274 130.966 26.4274 130.966 26.4274C130.966 26.4274 130.241 32.6621 130.622 34.9436C131.004 37.225 132.112 39.3537 134.481 39.0496C136.265 38.8211 139.003 35.2035 140.246 33.4341C140.336 35.0066 140.588 36.3994 141.032 37.4346C142.465 40.7607 147.164 42.2811 150.029 40.4566C152.69 38.7613 155.105 35.7377 156.536 33.3963C156.621 35.3107 156.748 36.7949 156.867 37.1872C157.21 38.328 160.839 39.8862 161.604 37.9482C162.369 36.0087 163.285 31.3717 164.049 30.2309C164.813 29.0902 164.813 29.0902 164.813 29.0902C164.813 29.0902 163.934 34.526 166.417 36.3522C168.9 38.1767 171.154 37.3401 173.064 34.7939C174.973 32.2461 175.127 32.0571 175.127 32.0571C175.127 32.0571 174.63 37.4929 176.541 39.319C178.45 41.1436 181.124 41.2586 183.417 38.3689C185.709 35.4793 186.129 34.1117 186.129 34.1117C186.129 34.1117 187.619 37.4945 191.631 37.381C195.643 37.2676 199.194 34.4914 199.729 30.8423C200.264 27.1932 200.34 23.6575 198.201 21.4895C196.064 19.3262 191.059 16.9691 187.468 22.2537ZM145.665 24.6486C145.741 23.4322 146.677 20.0006 147.92 20.125C147.92 20.125 148.339 20.2385 148.607 20.9239C148.874 21.6077 148.76 23.8135 147.92 25.0677C147.079 26.3219 145.665 26.0556 145.665 26.0556C145.665 26.0556 145.589 25.865 145.665 24.6486ZM102.116 24.6486C102.192 23.4322 103.127 20.0006 104.37 20.125C104.37 20.125 104.79 20.2385 105.057 20.9239C105.325 21.6077 105.211 23.8135 104.37 25.0677C103.529 26.3219 102.116 26.0556 102.116 26.0556C102.116 26.0556 102.038 25.865 102.116 24.6486ZM74.6853 24.6486C74.7613 23.4322 75.697 20.0006 76.9399 20.125C76.9399 20.125 77.3595 20.2385 77.627 20.9239C77.8946 21.6077 77.7806 23.8135 76.9399 25.0677C76.0992 26.3219 74.6853 26.0556 74.6853 26.0556C74.6853 26.0556 74.6093 25.865 74.6853 24.6486ZM193.293 33.962C191.954 33.962 190.868 31.1795 190.868 27.7462C190.868 24.313 191.954 21.5305 193.293 21.5305C194.633 21.5305 195.719 24.313 195.719 27.7462C195.719 31.1795 194.633 33.962 193.293 33.962Z"/><rect width="56.618" height="56" fill="#000" fill-opacity="0"/><path fill="url(#paint0_linear)" d="M54.1797 0.0425413V1.86324e-07H2.92273C1.30937 1.86324e-07 5.79812e-07 1.30145 5.79812e-07 2.90856V53.0914C5.79812e-07 54.697 1.30779 56 2.92273 56C3.08897 56 3.25046 55.9827 3.41037 55.9559H53.2075C53.3659 55.9827 53.5273 56 53.6952 56C55.3085 56 56.6179 54.6986 56.6179 53.0914V2.90856C56.6163 1.46688 55.5619 0.274155 54.1797 0.0425413Z"/><rect width="25.442" height="25.492" fill="#000" fill-opacity="0" transform="translate(15.5869 15.2534)"/><path fill="#fff" d="M41.0285 15.2534H25.6138V20.4434H41.0285V15.2534Z"/><path fill="#fff" d="M41.0285 25.405H25.6138V30.5951H41.0285V25.405Z"/><path fill="#fff" d="M41.0285 35.5549H25.6138V40.745H41.0285V35.5549Z"/><path fill="#fff" d="M20.8022 15.3118H15.5869V40.7451H20.8022V15.3118Z"/><defs><linearGradient id="paint0_linear" x1=".942" x2="55.407" y1="55.232" y2=".503" gradientUnits="userSpaceOnUse"><stop stop-color="#494463"/><stop offset="1" stop-color="#E2315D"/></linearGradient></defs></svg>