<svg xmlns="http://www.w3.org/2000/svg" width="330" height="184" fill="none" viewBox="0 0 330 184"><rect width="300" height="124" fill="#000" fill-opacity="0" transform="translate(0 15)"/><g filter="url(#filter0_d)"><rect width="134" height="33" x="165" y="105" stroke="#fff" stroke-width="2" rx="3"/></g><g filter="url(#filter1_d)"><circle cx="199" cy="44" r="6" stroke="#fff" stroke-width="2"/></g><g filter="url(#filter2_d)"><circle cx="219" cy="22" r="6" stroke="#fff" stroke-width="2"/></g><g filter="url(#filter3_d)"><circle cx="178" cy="64" r="6" stroke="#fff" stroke-width="2"/></g><path fill="#fff" d="M32 55C32 55.5523 31.5523 56 31 56C30.4477 56 30 55.5523 30 55V18C30 17.4477 30.4477 17 31 17C31.5523 17 32 17.4477 32 18V55Z"/><path fill="#fff" d="M37.7058 23.2785C38.0981 23.6723 38.0981 24.3108 37.7058 24.7046C37.3134 25.0985 36.6774 25.0985 36.2851 24.7046L30.3401 18.7215C29.9478 18.3277 29.9478 17.6892 30.3401 17.2954C30.7324 16.9015 31.3685 16.9015 31.7608 17.2954L37.7058 23.2785Z"/><path fill="#fff" d="M24.2942 23.2785C23.9019 23.6723 23.9019 24.3108 24.2942 24.7046C24.6866 25.0985 25.3226 25.0985 25.7149 24.7046L31.6599 18.7215C32.0522 18.3277 32.0522 17.6892 31.6599 17.2954C31.2676 16.9015 30.6315 16.9015 30.2392 17.2954L24.2942 23.2785Z"/><path fill="#fff" d="M145 77C145 76.4477 144.552 76 144 76C143.448 76 143 76.4477 143 77V114C143 114.552 143.448 115 144 115C144.552 115 145 114.552 145 114V77Z"/><path fill="#fff" d="M150.706 108.722C151.098 108.328 151.098 107.689 150.706 107.295C150.313 106.902 149.677 106.902 149.285 107.295L143.34 113.278C142.948 113.672 142.948 114.311 143.34 114.705C143.732 115.098 144.369 115.098 144.761 114.705L150.706 108.722Z"/><path fill="#fff" d="M137.294 108.722C136.902 108.328 136.902 107.689 137.294 107.295C137.687 106.902 138.323 106.902 138.715 107.295L144.66 113.278C145.052 113.672 145.052 114.311 144.66 114.705C144.268 115.098 143.631 115.098 143.239 114.705L137.294 108.722Z"/><rect width="81" height="81" fill="#000" fill-opacity="0" transform="translate(47 26)"/><rect width="73" height="73" x="51" y="30" stroke="#fff" stroke-width="2"/><rect width="71" height="71" x="52" y="102" fill="url(#paint0_linear)" transform="rotate(-90 52 102)"/><rect width="7" height="7" x="47" y="26" fill="#fff" rx="3.5"/><rect width="7" height="7" x="84" y="26" fill="#fff" rx="3.5"/><rect width="7" height="7" x="121" y="26" fill="#fff" rx="3.5"/><rect width="7" height="7" x="47" y="100" fill="#fff" rx="3.5"/><rect width="7" height="7" x="121" y="100" fill="#fff" rx="3.5"/><rect width="7" height="7" x="47" y="64" fill="#fff" rx="3.5"/><rect width="7" height="7" x="121" y="64" fill="#fff" rx="3.5"/><rect width="7" height="7" x="84" y="100" fill="#fff" rx="3.5"/><path fill="#fff" d="M228.246 71.25L229.926 72.9492C229.991 73.0013 230.062 73.0469 230.141 73.0859C230.219 73.112 230.297 73.125 230.375 73.125H231.625C231.794 73.125 231.938 73.0664 232.055 72.9492C232.185 72.819 232.25 72.6693 232.25 72.5V68.125C232.25 67.9557 232.185 67.8125 232.055 67.6953C231.938 67.5651 231.794 67.5 231.625 67.5H215.375C215.206 67.5 215.056 67.5651 214.926 67.6953C214.809 67.8125 214.75 67.9557 214.75 68.125V72.5C214.75 72.6693 214.809 72.819 214.926 72.9492C215.056 73.0664 215.206 73.125 215.375 73.125H216.625C216.703 73.125 216.781 73.112 216.859 73.0859C216.938 73.0469 217.009 73.0013 217.074 72.9492L218.754 71.25H221.625V80.9961L219.926 82.6758C219.874 82.7409 219.828 82.8125 219.789 82.8906C219.763 82.9688 219.75 83.0469 219.75 83.125V84.375C219.75 84.5443 219.809 84.694 219.926 84.8242C220.056 84.9414 220.206 85 220.375 85H226.625C226.794 85 226.938 84.9414 227.055 84.8242C227.185 84.694 227.25 84.5443 227.25 84.375V83.125C227.25 83.0469 227.23 82.9688 227.191 82.8906C227.165 82.8125 227.126 82.7409 227.074 82.6758L225.375 80.9961V71.25H228.246ZM224.301 81.6992L226 83.3789V83.75H221V83.3789L222.699 81.6992C222.751 81.6341 222.79 81.5625 222.816 81.4844C222.855 81.4062 222.875 81.3281 222.875 81.25V70.625C222.875 70.4557 222.81 70.3125 222.68 70.1953C222.562 70.0651 222.419 70 222.25 70H218.5C218.422 70 218.344 70.0195 218.266 70.0586C218.188 70.0846 218.116 70.1237 218.051 70.1758L216.371 71.875H216V68.75H231V71.875H230.629L228.949 70.1758C228.884 70.1237 228.812 70.0846 228.734 70.0586C228.656 70.0195 228.578 70 228.5 70H224.75C224.581 70 224.431 70.0651 224.301 70.1953C224.184 70.3125 224.125 70.4557 224.125 70.625V81.25C224.125 81.3281 224.138 81.4062 224.164 81.4844C224.203 81.5625 224.249 81.6341 224.301 81.6992Z"/><path fill="#fff" d="M75 85C75 84.4477 74.5523 84 74 84H71C70.4477 84 70 84.4477 70 85C70 85.5523 70.4477 86 71 86H74C74.5523 86 75 85.5523 75 85Z"/><path fill="#fff" d="M65 85C65 84.4477 64.5523 84 64 84H61C60.4477 84 60 84.4477 60 85C60 85.5523 60.4477 86 61 86H64C64.5523 86 65 85.5523 65 85Z"/><path fill="#fff" d="M25 85C25 84.4477 24.5523 84 24 84H21C20.4477 84 20 84.4477 20 85C20 85.5523 20.4477 86 21 86H24C24.5523 86 25 85.5523 25 85Z"/><path fill="#fff" d="M15 85C15 84.4477 14.5523 84 14 84H11C10.4477 84 10 84.4477 10 85C10 85.5523 10.4477 86 11 86H14C14.5523 86 15 85.5523 15 85Z"/><path fill="#fff" d="M5 85C5 84.4477 4.55228 84 4 84H1C0.447715 84 0 84.4477 0 85C0 85.5523 0.447715 86 1 86H4C4.55228 86 5 85.5523 5 85Z"/><path fill="#fff" d="M74 139C74.5523 139 75 138.552 75 138V135C75 134.448 74.5523 134 74 134C73.4477 134 73 134.448 73 135V138C73 138.552 73.4477 139 74 139Z"/><path fill="#fff" d="M74 129C74.5523 129 75 128.552 75 128V125C75 124.448 74.5523 124 74 124C73.4477 124 73 124.448 73 125V128C73 128.552 73.4477 129 74 129Z"/><path fill="#fff" d="M74 119C74.5523 119 75 118.552 75 118V115C75 114.448 74.5523 114 74 114C73.4477 114 73 114.448 73 115V118C73 118.552 73.4477 119 74 119Z"/><path fill="#fff" d="M74 109C74.5523 109 75 108.552 75 108V105C75 104.448 74.5523 104 74 104C73.4477 104 73 104.448 73 105V108C73 108.552 73.4477 109 74 109Z"/><path fill="#fff" d="M74 89C74.5523 89 75 88.5523 75 88V85C75 84.4477 74.5523 84 74 84C73.4477 84 73 84.4477 73 85V88C73 88.5523 73.4477 89 74 89Z"/><path fill="#fff" d="M0 138C0 138.552 0.447715 139 1 139H4C4.55228 139 5 138.552 5 138C5 137.448 4.55228 137 4 137H1C0.447715 137 0 137.448 0 138Z"/><path fill="#fff" d="M10 138C10 138.552 10.4477 139 11 139H14C14.5523 139 15 138.552 15 138C15 137.448 14.5523 137 14 137H11C10.4477 137 10 137.448 10 138Z"/><path fill="#fff" d="M20 138C20 138.552 20.4477 139 21 139H24C24.5523 139 25 138.552 25 138C25 137.448 24.5523 137 24 137H21C20.4477 137 20 137.448 20 138Z"/><path fill="#fff" d="M60 138C60 138.552 60.4477 139 61 139H64C64.5523 139 65 138.552 65 138C65 137.448 64.5523 137 64 137H61C60.4477 137 60 137.448 60 138Z"/><path fill="#fff" d="M70 138C70 138.552 70.4477 139 71 139H74C74.5523 139 75 138.552 75 138C75 137.448 74.5523 137 74 137H71C70.4477 137 70 137.448 70 138Z"/><path fill="#fff" d="M1 84C0.447715 84 0 84.4477 0 85V88C0 88.5523 0.447715 89 1 89C1.55228 89 2 88.5523 2 88V85C2 84.4477 1.55228 84 1 84Z"/><path fill="#fff" d="M1 104C0.447715 104 0 104.448 0 105V108C0 108.552 0.447715 109 1 109C1.55228 109 2 108.552 2 108V105C2 104.448 1.55228 104 1 104Z"/><path fill="#fff" d="M1 114C0.447715 114 0 114.448 0 115V118C0 118.552 0.447715 119 1 119C1.55228 119 2 118.552 2 118V115C2 114.448 1.55228 114 1 114Z"/><path fill="#fff" d="M1 124C0.447715 124 0 124.448 0 125V128C0 128.552 0.447715 129 1 129C1.55228 129 2 128.552 2 128V125C2 124.448 1.55228 124 1 124Z"/><path fill="#fff" d="M1 134C0.447715 134 0 134.448 0 135V138C0 138.552 0.447715 139 1 139C1.55228 139 2 138.552 2 138V135C2 134.448 1.55228 134 1 134Z"/><path fill="#fff" d="M25 85C25 84.4477 24.5523 84 24 84H21C20.4477 84 20 84.4477 20 85C20 85.5523 20.4477 86 21 86H24C24.5523 86 25 85.5523 25 85Z"/><path fill="#fff" d="M20 138C20 138.552 20.4477 139 21 139H24C24.5523 139 25 138.552 25 138C25 137.448 24.5523 137 24 137H21C20.4477 137 20 137.448 20 138Z"/><path fill="#fff" d="M25 85C25 84.4477 24.5523 84 24 84H21C20.4477 84 20 84.4477 20 85C20 85.5523 20.4477 86 21 86H24C24.5523 86 25 85.5523 25 85Z"/><path fill="#fff" d="M20 138C20 138.552 20.4477 139 21 139H24C24.5523 139 25 138.552 25 138C25 137.448 24.5523 137 24 137H21C20.4477 137 20 137.448 20 138Z"/><path fill="#fff" d="M35 85C35 84.4477 34.5523 84 34 84H31C30.4477 84 30 84.4477 30 85C30 85.5523 30.4477 86 31 86H34C34.5523 86 35 85.5523 35 85Z"/><path fill="#fff" d="M30 138C30 138.552 30.4477 139 31 139H34C34.5523 139 35 138.552 35 138C35 137.448 34.5523 137 34 137H31C30.4477 137 30 137.448 30 138Z"/><path fill="#fff" d="M45 85C45 84.4477 44.5523 84 44 84H41C40.4477 84 40 84.4477 40 85C40 85.5523 40.4477 86 41 86H44C44.5523 86 45 85.5523 45 85Z"/><path fill="#fff" d="M40 138C40 138.552 40.4477 139 41 139H44C44.5523 139 45 138.552 45 138C45 137.448 44.5523 137 44 137H41C40.4477 137 40 137.448 40 138Z"/><path fill="#fff" d="M55 85C55 84.4477 54.5523 84 54 84H51C50.4477 84 50 84.4477 50 85C50 85.5523 50.4477 86 51 86H54C54.5523 86 55 85.5523 55 85Z"/><path fill="#fff" d="M50 138C50 138.552 50.4477 139 51 139H54C54.5523 139 55 138.552 55 138C55 137.448 54.5523 137 54 137H51C50.4477 137 50 137.448 50 138Z"/><path fill="#fff" d="M74 99C74.5523 99 75 98.5523 75 98V95C75 94.4477 74.5523 94 74 94C73.4477 94 73 94.4477 73 95V98C73 98.5523 73.4477 99 74 99Z"/><path fill="#fff" d="M1 94C0.447715 94 0 94.4477 0 95V98C0 98.5523 0.447715 99 1 99C1.55228 99 2 98.5523 2 98V95C2 94.4477 1.55228 94 1 94Z"/><path fill="#fff" d="M300 53C300 52.4477 299.552 52 299 52H296C295.448 52 295 52.4477 295 53C295 53.5523 295.448 54 296 54H299C299.552 54 300 53.5523 300 53Z"/><path fill="#fff" d="M290 53C290 52.4477 289.552 52 289 52H286C285.448 52 285 52.4477 285 53C285 53.5523 285.448 54 286 54H289C289.552 54 290 53.5523 290 53Z"/><path fill="#fff" d="M280 53C280 52.4477 279.552 52 279 52H276C275.448 52 275 52.4477 275 53C275 53.5523 275.448 54 276 54H279C279.552 54 280 53.5523 280 53Z"/><path fill="#fff" d="M270 53C270 52.4477 269.552 52 269 52H266C265.448 52 265 52.4477 265 53C265 53.5523 265.448 54 266 54H269C269.552 54 270 53.5523 270 53Z"/><path fill="#fff" d="M260 53C260 52.4477 259.552 52 259 52H256C255.448 52 255 52.4477 255 53C255 53.5523 255.448 54 256 54H259C259.552 54 260 53.5523 260 53Z"/><path fill="#fff" d="M299 97C299.552 97 300 96.5523 300 96V93C300 92.4477 299.552 92 299 92C298.448 92 298 92.4477 298 93V96C298 96.5523 298.448 97 299 97Z"/><path fill="#fff" d="M299 87C299.552 87 300 86.5523 300 86V83C300 82.4477 299.552 82 299 82C298.448 82 298 82.4477 298 83V86C298 86.5523 298.448 87 299 87Z"/><path fill="#fff" d="M299 77C299.552 77 300 76.5523 300 76V73C300 72.4477 299.552 72 299 72C298.448 72 298 72.4477 298 73V76C298 76.5523 298.448 77 299 77Z"/><path fill="#fff" d="M299 67C299.552 67 300 66.5523 300 66V63C300 62.4477 299.552 62 299 62C298.448 62 298 62.4477 298 63V66C298 66.5523 298.448 67 299 67Z"/><path fill="#fff" d="M299 57C299.552 57 300 56.5523 300 56V53C300 52.4477 299.552 52 299 52C298.448 52 298 52.4477 298 53V56C298 56.5523 298.448 57 299 57Z"/><path fill="#fff" d="M255 96C255 96.5523 255.448 97 256 97H259C259.552 97 260 96.5523 260 96C260 95.4477 259.552 95 259 95H256C255.448 95 255 95.4477 255 96Z"/><path fill="#fff" d="M265 96C265 96.5523 265.448 97 266 97H269C269.552 97 270 96.5523 270 96C270 95.4477 269.552 95 269 95H266C265.448 95 265 95.4477 265 96Z"/><path fill="#fff" d="M275 96C275 96.5523 275.448 97 276 97H279C279.552 97 280 96.5523 280 96C280 95.4477 279.552 95 279 95H276C275.448 95 275 95.4477 275 96Z"/><path fill="#fff" d="M285 96C285 96.5523 285.448 97 286 97H289C289.552 97 290 96.5523 290 96C290 95.4477 289.552 95 289 95H286C285.448 95 285 95.4477 285 96Z"/><path fill="#fff" d="M295 96C295 96.5523 295.448 97 296 97H299C299.552 97 300 96.5523 300 96C300 95.4477 299.552 95 299 95H296C295.448 95 295 95.4477 295 96Z"/><path fill="#fff" d="M256 52C255.448 52 255 52.4477 255 53V56C255 56.5523 255.448 57 256 57C256.552 57 257 56.5523 257 56V53C257 52.4477 256.552 52 256 52Z"/><path fill="#fff" d="M256 62C255.448 62 255 62.4477 255 63V66C255 66.5523 255.448 67 256 67C256.552 67 257 66.5523 257 66V63C257 62.4477 256.552 62 256 62Z"/><path fill="#fff" d="M256 72C255.448 72 255 72.4477 255 73V76C255 76.5523 255.448 77 256 77C256.552 77 257 76.5523 257 76V73C257 72.4477 256.552 72 256 72Z"/><path fill="#fff" d="M256 82C255.448 82 255 82.4477 255 83V86C255 86.5523 255.448 87 256 87C256.552 87 257 86.5523 257 86V83C257 82.4477 256.552 82 256 82Z"/><path fill="#fff" d="M256 92C255.448 92 255 92.4477 255 93V96C255 96.5523 255.448 97 256 97C256.552 97 257 96.5523 257 96V93C257 92.4477 256.552 92 256 92Z"/><defs><filter id="filter0_d" width="196" height="95" x="134" y="89" color-interpolation-filters="sRGB" filterUnits="userSpaceOnUse"><feFlood flood-opacity="0" result="BackgroundImageFix"/><feColorMatrix in="SourceAlpha" type="matrix" values="0 0 0 0 0 0 0 0 0 0 0 0 0 0 0 0 0 0 255 0"/><feOffset dy="15"/><feGaussianBlur stdDeviation="15"/><feColorMatrix type="matrix" values="0 0 0 0 0.203922 0 0 0 0 0.192157 0 0 0 0 0.294118 0 0 0 0.2 0"/><feBlend in2="BackgroundImageFix" mode="normal" result="effect1_dropShadow"/><feBlend in="SourceGraphic" in2="effect1_dropShadow" mode="normal" result="shape"/></filter><filter id="filter1_d" width="74" height="74" x="162" y="22" color-interpolation-filters="sRGB" filterUnits="userSpaceOnUse"><feFlood flood-opacity="0" result="BackgroundImageFix"/><feColorMatrix in="SourceAlpha" type="matrix" values="0 0 0 0 0 0 0 0 0 0 0 0 0 0 0 0 0 0 255 0"/><feOffset dy="15"/><feGaussianBlur stdDeviation="15"/><feColorMatrix type="matrix" values="0 0 0 0 0.203922 0 0 0 0 0.192157 0 0 0 0 0.294118 0 0 0 0.2 0"/><feBlend in2="BackgroundImageFix" mode="normal" result="effect1_dropShadow"/><feBlend in="SourceGraphic" in2="effect1_dropShadow" mode="normal" result="shape"/></filter><filter id="filter2_d" width="74" height="74" x="182" y="0" color-interpolation-filters="sRGB" filterUnits="userSpaceOnUse"><feFlood flood-opacity="0" result="BackgroundImageFix"/><feColorMatrix in="SourceAlpha" type="matrix" values="0 0 0 0 0 0 0 0 0 0 0 0 0 0 0 0 0 0 255 0"/><feOffset dy="15"/><feGaussianBlur stdDeviation="15"/><feColorMatrix type="matrix" values="0 0 0 0 0.203922 0 0 0 0 0.192157 0 0 0 0 0.294118 0 0 0 0.2 0"/><feBlend in2="BackgroundImageFix" mode="normal" result="effect1_dropShadow"/><feBlend in="SourceGraphic" in2="effect1_dropShadow" mode="normal" result="shape"/></filter><filter id="filter3_d" width="74" height="74" x="141" y="42" color-interpolation-filters="sRGB" filterUnits="userSpaceOnUse"><feFlood flood-opacity="0" result="BackgroundImageFix"/><feColorMatrix in="SourceAlpha" type="matrix" values="0 0 0 0 0 0 0 0 0 0 0 0 0 0 0 0 0 0 255 0"/><feOffset dy="15"/><feGaussianBlur stdDeviation="15"/><feColorMatrix type="matrix" values="0 0 0 0 0.203922 0 0 0 0 0.192157 0 0 0 0 0.294118 0 0 0 0.2 0"/><feBlend in2="BackgroundImageFix" mode="normal" result="effect1_dropShadow"/><feBlend in="SourceGraphic" in2="effect1_dropShadow" mode="normal" result="shape"/></filter><linearGradient id="paint0_linear" x1="123" x2="56.5" y1="96" y2="96" gradientUnits="userSpaceOnUse"><stop stop-color="#1CEBBC"/><stop offset="1" stop-color="#8667F7"/></linearGradient></defs></svg>