<svg width="269" height="173" viewBox="0 0 269 173" fill="none" xmlns="http://www.w3.org/2000/svg">
<rect width="209" height="113" fill="black" fill-opacity="0" transform="translate(30 15)"/>
<g filter="url(#filter0_d)">
<rect x="31" y="38" width="207" height="89" rx="3" stroke="white" stroke-width="2"/>
</g>
<g filter="url(#filter1_d)">
<path d="M43 50H96V79H43V50Z" stroke="white" stroke-width="2"/>
</g>
<path d="M162 50C162 49.4477 161.552 49 161 49H158C157.448 49 157 49.4477 157 50C157 50.5523 157.448 51 158 51H161C161.552 51 162 50.5523 162 50Z" fill="white"/>
<path d="M152 50C152 49.4477 151.552 49 151 49H148C147.448 49 147 49.4477 147 50C147 50.5523 147.448 51 148 51H151C151.552 51 152 50.5523 152 50Z" fill="white"/>
<path d="M132 50C132 49.4477 131.552 49 131 49H128C127.448 49 127 49.4477 127 50C127 50.5523 127.448 51 128 51H131C131.552 51 132 50.5523 132 50Z" fill="white"/>
<path d="M122 50C122 49.4477 121.552 49 121 49H118C117.448 49 117 49.4477 117 50C117 50.5523 117.448 51 118 51H121C121.552 51 122 50.5523 122 50Z" fill="white"/>
<path d="M112 50C112 49.4477 111.552 49 111 49H108C107.448 49 107 49.4477 107 50C107 50.5523 107.448 51 108 51H111C111.552 51 112 50.5523 112 50Z" fill="white"/>
<path d="M161 116C161.552 116 162 115.552 162 115V112C162 111.448 161.552 111 161 111C160.448 111 160 111.448 160 112V115C160 115.552 160.448 116 161 116Z" fill="white"/>
<path d="M161 85C161.552 85 162 84.5523 162 84V81C162 80.4477 161.552 80 161 80C160.448 80 160 80.4477 160 81V84C160 84.5523 160.448 85 161 85Z" fill="white"/>
<path d="M161 74C161.552 74 162 73.5523 162 73V70C162 69.4477 161.552 69 161 69C160.448 69 160 69.4477 160 70V73C160 73.5523 160.448 74 161 74Z" fill="white"/>
<path d="M161 64C161.552 64 162 63.5523 162 63V60C162 59.4477 161.552 59 161 59C160.448 59 160 59.4477 160 60V63C160 63.5523 160.448 64 161 64Z" fill="white"/>
<path d="M161 54C161.552 54 162 53.5523 162 53V50C162 49.4477 161.552 49 161 49C160.448 49 160 49.4477 160 50V53C160 53.5523 160.448 54 161 54Z" fill="white"/>
<path d="M107 115C107 115.552 107.448 116 108 116H111C111.552 116 112 115.552 112 115C112 114.448 111.552 114 111 114H108C107.448 114 107 114.448 107 115Z" fill="white"/>
<path d="M117 115C117 115.552 117.448 116 118 116H121C121.552 116 122 115.552 122 115C122 114.448 121.552 114 121 114H118C117.448 114 117 114.448 117 115Z" fill="white"/>
<path d="M127 115C127 115.552 127.448 116 128 116H131C131.552 116 132 115.552 132 115C132 114.448 131.552 114 131 114H128C127.448 114 127 114.448 127 115Z" fill="white"/>
<path d="M147 115C147 115.552 147.448 116 148 116H151C151.552 116 152 115.552 152 115C152 114.448 151.552 114 151 114H148C147.448 114 147 114.448 147 115Z" fill="white"/>
<path d="M157 115C157 115.552 157.448 116 158 116H161C161.552 116 162 115.552 162 115C162 114.448 161.552 114 161 114H158C157.448 114 157 114.448 157 115Z" fill="white"/>
<path d="M108 49C107.448 49 107 49.4477 107 50V53C107 53.5523 107.448 54 108 54C108.552 54 109 53.5523 109 53V50C109 49.4477 108.552 49 108 49Z" fill="white"/>
<path d="M108 59C107.448 59 107 59.4477 107 60V63C107 63.5523 107.448 64 108 64C108.552 64 109 63.5523 109 63V60C109 59.4477 108.552 59 108 59Z" fill="white"/>
<path d="M108 69C107.448 69 107 69.4477 107 70V73C107 73.5523 107.448 74 108 74C108.552 74 109 73.5523 109 73V70C109 69.4477 108.552 69 108 69Z" fill="white"/>
<path d="M108 80C107.448 80 107 80.4477 107 81V84C107 84.5523 107.448 85 108 85C108.552 85 109 84.5523 109 84V81C109 80.4477 108.552 80 108 80Z" fill="white"/>
<path d="M108 111C107.448 111 107 111.448 107 112V115C107 115.552 107.448 116 108 116C108.552 116 109 115.552 109 115V112C109 111.448 108.552 111 108 111Z" fill="white"/>
<path d="M142 50C142 49.4477 141.552 49 141 49H138C137.448 49 137 49.4477 137 50C137 50.5523 137.448 51 138 51H141C141.552 51 142 50.5523 142 50Z" fill="white"/>
<path d="M137 115C137 115.552 137.448 116 138 116H141C141.552 116 142 115.552 142 115C142 114.448 141.552 114 141 114H138C137.448 114 137 114.448 137 115Z" fill="white"/>
<path d="M161 106C161.552 106 162 105.552 162 105V102C162 101.448 161.552 101 161 101C160.448 101 160 101.448 160 102V105C160 105.552 160.448 106 161 106Z" fill="white"/>
<path d="M161 96C161.552 96 162 95.5523 162 95V92C162 91.4477 161.552 91 161 91C160.448 91 160 91.4477 160 92V95C160 95.5523 160.448 96 161 96Z" fill="white"/>
<path d="M108 91C107.448 91 107 91.4477 107 92V95C107 95.5523 107.448 96 108 96C108.552 96 109 95.5523 109 95V92C109 91.4477 108.552 91 108 91Z" fill="white"/>
<path d="M108 101C107.448 101 107 101.448 107 102V105C107 105.552 107.448 106 108 106C108.552 106 109 105.552 109 105V102C109 101.448 108.552 101 108 101Z" fill="white"/>
<g filter="url(#filter2_d)">
<circle cx="134" cy="82" r="12" stroke="white" stroke-width="2"/>
</g>
<path d="M133 77H135V87H133V77Z" fill="white"/>
<path d="M129 83V81H139V83H129Z" fill="white"/>
<g filter="url(#filter3_d)">
<circle cx="199" cy="82" r="12" stroke="white" stroke-width="2"/>
</g>
<path d="M198 77H200V87H198V77Z" fill="white"/>
<path d="M194 83V81H204V83H194Z" fill="white"/>
<path d="M227 50C227 49.4477 226.552 49 226 49H223C222.448 49 222 49.4477 222 50C222 50.5523 222.448 51 223 51H226C226.552 51 227 50.5523 227 50Z" fill="white"/>
<path d="M217 50C217 49.4477 216.552 49 216 49H213C212.448 49 212 49.4477 212 50C212 50.5523 212.448 51 213 51H216C216.552 51 217 50.5523 217 50Z" fill="white"/>
<path d="M197 50C197 49.4477 196.552 49 196 49H193C192.448 49 192 49.4477 192 50C192 50.5523 192.448 51 193 51H196C196.552 51 197 50.5523 197 50Z" fill="white"/>
<path d="M187 50C187 49.4477 186.552 49 186 49H183C182.448 49 182 49.4477 182 50C182 50.5523 182.448 51 183 51H186C186.552 51 187 50.5523 187 50Z" fill="white"/>
<path d="M177 50C177 49.4477 176.552 49 176 49H173C172.448 49 172 49.4477 172 50C172 50.5523 172.448 51 173 51H176C176.552 51 177 50.5523 177 50Z" fill="white"/>
<path d="M226 116C226.552 116 227 115.552 227 115V112C227 111.448 226.552 111 226 111C225.448 111 225 111.448 225 112V115C225 115.552 225.448 116 226 116Z" fill="white"/>
<path d="M226 85C226.552 85 227 84.5523 227 84V81C227 80.4477 226.552 80 226 80C225.448 80 225 80.4477 225 81V84C225 84.5523 225.448 85 226 85Z" fill="white"/>
<path d="M226 74C226.552 74 227 73.5523 227 73V70C227 69.4477 226.552 69 226 69C225.448 69 225 69.4477 225 70V73C225 73.5523 225.448 74 226 74Z" fill="white"/>
<path d="M226 64C226.552 64 227 63.5523 227 63V60C227 59.4477 226.552 59 226 59C225.448 59 225 59.4477 225 60V63C225 63.5523 225.448 64 226 64Z" fill="white"/>
<path d="M226 54C226.552 54 227 53.5523 227 53V50C227 49.4477 226.552 49 226 49C225.448 49 225 49.4477 225 50V53C225 53.5523 225.448 54 226 54Z" fill="white"/>
<path d="M172 115C172 115.552 172.448 116 173 116H176C176.552 116 177 115.552 177 115C177 114.448 176.552 114 176 114H173C172.448 114 172 114.448 172 115Z" fill="white"/>
<path d="M182 115C182 115.552 182.448 116 183 116H186C186.552 116 187 115.552 187 115C187 114.448 186.552 114 186 114H183C182.448 114 182 114.448 182 115Z" fill="white"/>
<path d="M192 115C192 115.552 192.448 116 193 116H196C196.552 116 197 115.552 197 115C197 114.448 196.552 114 196 114H193C192.448 114 192 114.448 192 115Z" fill="white"/>
<path d="M212 115C212 115.552 212.448 116 213 116H216C216.552 116 217 115.552 217 115C217 114.448 216.552 114 216 114H213C212.448 114 212 114.448 212 115Z" fill="white"/>
<path d="M222 115C222 115.552 222.448 116 223 116H226C226.552 116 227 115.552 227 115C227 114.448 226.552 114 226 114H223C222.448 114 222 114.448 222 115Z" fill="white"/>
<path d="M173 49C172.448 49 172 49.4477 172 50V53C172 53.5523 172.448 54 173 54C173.552 54 174 53.5523 174 53V50C174 49.4477 173.552 49 173 49Z" fill="white"/>
<path d="M173 59C172.448 59 172 59.4477 172 60V63C172 63.5523 172.448 64 173 64C173.552 64 174 63.5523 174 63V60C174 59.4477 173.552 59 173 59Z" fill="white"/>
<path d="M173 69C172.448 69 172 69.4477 172 70V73C172 73.5523 172.448 74 173 74C173.552 74 174 73.5523 174 73V70C174 69.4477 173.552 69 173 69Z" fill="white"/>
<path d="M173 80C172.448 80 172 80.4477 172 81V84C172 84.5523 172.448 85 173 85C173.552 85 174 84.5523 174 84V81C174 80.4477 173.552 80 173 80Z" fill="white"/>
<path d="M173 111C172.448 111 172 111.448 172 112V115C172 115.552 172.448 116 173 116C173.552 116 174 115.552 174 115V112C174 111.448 173.552 111 173 111Z" fill="white"/>
<path d="M207 50C207 49.4477 206.552 49 206 49H203C202.448 49 202 49.4477 202 50C202 50.5523 202.448 51 203 51H206C206.552 51 207 50.5523 207 50Z" fill="white"/>
<path d="M202 115C202 115.552 202.448 116 203 116H206C206.552 116 207 115.552 207 115C207 114.448 206.552 114 206 114H203C202.448 114 202 114.448 202 115Z" fill="white"/>
<path d="M226 106C226.552 106 227 105.552 227 105V102C227 101.448 226.552 101 226 101C225.448 101 225 101.448 225 102V105C225 105.552 225.448 106 226 106Z" fill="white"/>
<path d="M226 96C226.552 96 227 95.5523 227 95V92C227 91.4477 226.552 91 226 91C225.448 91 225 91.4477 225 92V95C225 95.5523 225.448 96 226 96Z" fill="white"/>
<path d="M173 91C172.448 91 172 91.4477 172 92V95C172 95.5523 172.448 96 173 96C173.552 96 174 95.5523 174 95V92C174 91.4477 173.552 91 173 91Z" fill="white"/>
<path d="M173 101C172.448 101 172 101.448 172 102V105C172 105.552 172.448 106 173 106C173.552 106 174 105.552 174 105V102C174 101.448 173.552 101 173 101Z" fill="white"/>
<g filter="url(#filter4_d)">
<path d="M43 86H96V91H43V86Z" stroke="white" stroke-width="2"/>
</g>
<g filter="url(#filter5_d)">
<path d="M43 98H96V103H43V98Z" stroke="white" stroke-width="2"/>
</g>
<g filter="url(#filter6_d)">
<path d="M43 110H73V115H43V110Z" stroke="white" stroke-width="2"/>
</g>
<rect width="166" height="24" fill="black" fill-opacity="0" transform="translate(51 15)"/>
<g filter="url(#filter7_d)">
<path d="M52 19C52 17.3431 53.3431 16 55 16H99C100.657 16 102 17.3431 102 19V38H52V19Z" stroke="white" stroke-width="2"/>
</g>
<g filter="url(#filter8_d)">
<path d="M109 26C109 24.3431 110.343 23 112 23H156C157.657 23 159 24.3431 159 26V38H109V26Z" stroke="white" stroke-width="2"/>
</g>
<g filter="url(#filter9_d)">
<path d="M166 26C166 24.3431 167.343 23 169 23H213C214.657 23 216 24.3431 216 26V38H166V26Z" stroke="white" stroke-width="2"/>
</g>
<rect x="60.1924" y="15" width="2" height="13" transform="rotate(45 60.1924 15)" fill="white"/>
<rect x="68.1924" y="15" width="2" height="23.9485" transform="rotate(45 68.1924 15)" fill="white"/>
<rect x="76.1924" y="15" width="2" height="31.6344" transform="rotate(45 76.1924 15)" fill="white"/>
<rect x="84.1924" y="15" width="2" height="31.3842" transform="rotate(45 84.1924 15)" fill="white"/>
<rect x="92.1924" y="15" width="2" height="31.6668" transform="rotate(45 92.1924 15)" fill="white"/>
<rect x="100.047" y="15.1455" width="2" height="31.284" transform="rotate(45 100.047 15.1455)" fill="white"/>
<rect x="101.526" y="21.666" width="2" height="22.2443" transform="rotate(45 101.526 21.666)" fill="white"/>
<rect x="101.437" y="29.7559" width="2" height="10.4862" transform="rotate(45 101.437 29.7559)" fill="white"/>
<defs>
<filter id="filter0_d" x="0" y="22" width="269" height="151" filterUnits="userSpaceOnUse" color-interpolation-filters="sRGB">
<feFlood flood-opacity="0" result="BackgroundImageFix"/>
<feColorMatrix in="SourceAlpha" type="matrix" values="0 0 0 0 0 0 0 0 0 0 0 0 0 0 0 0 0 0 255 0"/>
<feOffset dy="15"/>
<feGaussianBlur stdDeviation="15"/>
<feColorMatrix type="matrix" values="0 0 0 0 0.203922 0 0 0 0 0.192157 0 0 0 0 0.294118 0 0 0 0.2 0"/>
<feBlend mode="normal" in2="BackgroundImageFix" result="effect1_dropShadow"/>
<feBlend mode="normal" in="SourceGraphic" in2="effect1_dropShadow" result="shape"/>
</filter>
<filter id="filter1_d" x="12" y="34" width="115" height="91" filterUnits="userSpaceOnUse" color-interpolation-filters="sRGB">
<feFlood flood-opacity="0" result="BackgroundImageFix"/>
<feColorMatrix in="SourceAlpha" type="matrix" values="0 0 0 0 0 0 0 0 0 0 0 0 0 0 0 0 0 0 255 0"/>
<feOffset dy="15"/>
<feGaussianBlur stdDeviation="15"/>
<feColorMatrix type="matrix" values="0 0 0 0 0.203922 0 0 0 0 0.192157 0 0 0 0 0.294118 0 0 0 0.2 0"/>
<feBlend mode="normal" in2="BackgroundImageFix" result="effect1_dropShadow"/>
<feBlend mode="normal" in="SourceGraphic" in2="effect1_dropShadow" result="shape"/>
</filter>
<filter id="filter2_d" x="91" y="54" width="86" height="86" filterUnits="userSpaceOnUse" color-interpolation-filters="sRGB">
<feFlood flood-opacity="0" result="BackgroundImageFix"/>
<feColorMatrix in="SourceAlpha" type="matrix" values="0 0 0 0 0 0 0 0 0 0 0 0 0 0 0 0 0 0 255 0"/>
<feOffset dy="15"/>
<feGaussianBlur stdDeviation="15"/>
<feColorMatrix type="matrix" values="0 0 0 0 0.203922 0 0 0 0 0.192157 0 0 0 0 0.294118 0 0 0 0.2 0"/>
<feBlend mode="normal" in2="BackgroundImageFix" result="effect1_dropShadow"/>
<feBlend mode="normal" in="SourceGraphic" in2="effect1_dropShadow" result="shape"/>
</filter>
<filter id="filter3_d" x="156" y="54" width="86" height="86" filterUnits="userSpaceOnUse" color-interpolation-filters="sRGB">
<feFlood flood-opacity="0" result="BackgroundImageFix"/>
<feColorMatrix in="SourceAlpha" type="matrix" values="0 0 0 0 0 0 0 0 0 0 0 0 0 0 0 0 0 0 255 0"/>
<feOffset dy="15"/>
<feGaussianBlur stdDeviation="15"/>
<feColorMatrix type="matrix" values="0 0 0 0 0.203922 0 0 0 0 0.192157 0 0 0 0 0.294118 0 0 0 0.2 0"/>
<feBlend mode="normal" in2="BackgroundImageFix" result="effect1_dropShadow"/>
<feBlend mode="normal" in="SourceGraphic" in2="effect1_dropShadow" result="shape"/>
</filter>
<filter id="filter4_d" x="12" y="70" width="115" height="67" filterUnits="userSpaceOnUse" color-interpolation-filters="sRGB">
<feFlood flood-opacity="0" result="BackgroundImageFix"/>
<feColorMatrix in="SourceAlpha" type="matrix" values="0 0 0 0 0 0 0 0 0 0 0 0 0 0 0 0 0 0 255 0"/>
<feOffset dy="15"/>
<feGaussianBlur stdDeviation="15"/>
<feColorMatrix type="matrix" values="0 0 0 0 0.203922 0 0 0 0 0.192157 0 0 0 0 0.294118 0 0 0 0.2 0"/>
<feBlend mode="normal" in2="BackgroundImageFix" result="effect1_dropShadow"/>
<feBlend mode="normal" in="SourceGraphic" in2="effect1_dropShadow" result="shape"/>
</filter>
<filter id="filter5_d" x="12" y="82" width="115" height="67" filterUnits="userSpaceOnUse" color-interpolation-filters="sRGB">
<feFlood flood-opacity="0" result="BackgroundImageFix"/>
<feColorMatrix in="SourceAlpha" type="matrix" values="0 0 0 0 0 0 0 0 0 0 0 0 0 0 0 0 0 0 255 0"/>
<feOffset dy="15"/>
<feGaussianBlur stdDeviation="15"/>
<feColorMatrix type="matrix" values="0 0 0 0 0.203922 0 0 0 0 0.192157 0 0 0 0 0.294118 0 0 0 0.2 0"/>
<feBlend mode="normal" in2="BackgroundImageFix" result="effect1_dropShadow"/>
<feBlend mode="normal" in="SourceGraphic" in2="effect1_dropShadow" result="shape"/>
</filter>
<filter id="filter6_d" x="12" y="94" width="92" height="67" filterUnits="userSpaceOnUse" color-interpolation-filters="sRGB">
<feFlood flood-opacity="0" result="BackgroundImageFix"/>
<feColorMatrix in="SourceAlpha" type="matrix" values="0 0 0 0 0 0 0 0 0 0 0 0 0 0 0 0 0 0 255 0"/>
<feOffset dy="15"/>
<feGaussianBlur stdDeviation="15"/>
<feColorMatrix type="matrix" values="0 0 0 0 0.203922 0 0 0 0 0.192157 0 0 0 0 0.294118 0 0 0 0.2 0"/>
<feBlend mode="normal" in2="BackgroundImageFix" result="effect1_dropShadow"/>
<feBlend mode="normal" in="SourceGraphic" in2="effect1_dropShadow" result="shape"/>
</filter>
<filter id="filter7_d" x="21" y="0" width="112" height="84" filterUnits="userSpaceOnUse" color-interpolation-filters="sRGB">
<feFlood flood-opacity="0" result="BackgroundImageFix"/>
<feColorMatrix in="SourceAlpha" type="matrix" values="0 0 0 0 0 0 0 0 0 0 0 0 0 0 0 0 0 0 255 0"/>
<feOffset dy="15"/>
<feGaussianBlur stdDeviation="15"/>
<feColorMatrix type="matrix" values="0 0 0 0 0.203922 0 0 0 0 0.192157 0 0 0 0 0.294118 0 0 0 0.2 0"/>
<feBlend mode="normal" in2="BackgroundImageFix" result="effect1_dropShadow"/>
<feBlend mode="normal" in="SourceGraphic" in2="effect1_dropShadow" result="shape"/>
</filter>
<filter id="filter8_d" x="78" y="7" width="112" height="77" filterUnits="userSpaceOnUse" color-interpolation-filters="sRGB">
<feFlood flood-opacity="0" result="BackgroundImageFix"/>
<feColorMatrix in="SourceAlpha" type="matrix" values="0 0 0 0 0 0 0 0 0 0 0 0 0 0 0 0 0 0 255 0"/>
<feOffset dy="15"/>
<feGaussianBlur stdDeviation="15"/>
<feColorMatrix type="matrix" values="0 0 0 0 0.203922 0 0 0 0 0.192157 0 0 0 0 0.294118 0 0 0 0.2 0"/>
<feBlend mode="normal" in2="BackgroundImageFix" result="effect1_dropShadow"/>
<feBlend mode="normal" in="SourceGraphic" in2="effect1_dropShadow" result="shape"/>
</filter>
<filter id="filter9_d" x="135" y="7" width="112" height="77" filterUnits="userSpaceOnUse" color-interpolation-filters="sRGB">
<feFlood flood-opacity="0" result="BackgroundImageFix"/>
<feColorMatrix in="SourceAlpha" type="matrix" values="0 0 0 0 0 0 0 0 0 0 0 0 0 0 0 0 0 0 255 0"/>
<feOffset dy="15"/>
<feGaussianBlur stdDeviation="15"/>
<feColorMatrix type="matrix" values="0 0 0 0 0.203922 0 0 0 0 0.192157 0 0 0 0 0.294118 0 0 0 0.2 0"/>
<feBlend mode="normal" in2="BackgroundImageFix" result="effect1_dropShadow"/>
<feBlend mode="normal" in="SourceGraphic" in2="effect1_dropShadow" result="shape"/>
</filter>
</defs>
</svg>
