<svg width="307" height="161" viewBox="0 0 307 161" fill="none" xmlns="http://www.w3.org/2000/svg">
<rect width="289" height="125" fill="black" fill-opacity="0" transform="translate(0 3)"/>
<rect x="81" y="38" width="207" height="89" rx="3" stroke="white" stroke-width="2"/>
<g filter="url(#filter0_d)">
<path d="M93 50H146V79H93V50Z" stroke="white" stroke-width="2"/>
</g>
<g filter="url(#filter1_d)">
<path d="M158 50H175V67H158V50Z" stroke="white" stroke-width="2"/>
</g>
<g filter="url(#filter2_d)">
<path d="M182 50H211V55H182V50Z" stroke="white" stroke-width="2"/>
</g>
<g filter="url(#filter3_d)">
<path d="M182 62H195V67H182V62Z" stroke="white" stroke-width="2"/>
</g>
<g filter="url(#filter4_d)">
<path d="M158 74H175V91H158V74Z" stroke="white" stroke-width="2"/>
</g>
<g filter="url(#filter5_d)">
<path d="M182 74H211V79H182V74Z" stroke="white" stroke-width="2"/>
</g>
<g filter="url(#filter6_d)">
<path d="M182 86H195V91H182V86Z" stroke="white" stroke-width="2"/>
</g>
<g filter="url(#filter7_d)">
<path d="M158 98H175V115H158V98Z" stroke="white" stroke-width="2"/>
</g>
<g filter="url(#filter8_d)">
<path d="M182 98H211V103H182V98Z" stroke="white" stroke-width="2"/>
</g>
<g filter="url(#filter9_d)">
<path d="M182 110H195V115H182V110Z" stroke="white" stroke-width="2"/>
</g>
<g filter="url(#filter10_d)">
<path d="M223 50H240V67H223V50Z" stroke="white" stroke-width="2"/>
</g>
<g filter="url(#filter11_d)">
<path d="M247 50H276V55H247V50Z" stroke="white" stroke-width="2"/>
</g>
<g filter="url(#filter12_d)">
<path d="M247 62H260V67H247V62Z" stroke="white" stroke-width="2"/>
</g>
<g filter="url(#filter13_d)">
<path d="M223 74H240V91H223V74Z" stroke="white" stroke-width="2"/>
</g>
<g filter="url(#filter14_d)">
<path d="M247 74H276V79H247V74Z" stroke="white" stroke-width="2"/>
</g>
<g filter="url(#filter15_d)">
<path d="M247 86H260V91H247V86Z" stroke="white" stroke-width="2"/>
</g>
<g filter="url(#filter16_d)">
<path d="M223 98H240V115H223V98Z" stroke="white" stroke-width="2"/>
</g>
<g filter="url(#filter17_d)">
<path d="M247 98H276V103H247V98Z" stroke="white" stroke-width="2"/>
</g>
<g filter="url(#filter18_d)">
<path d="M247 110H260V115H247V110Z" stroke="white" stroke-width="2"/>
</g>
<g filter="url(#filter19_d)">
<path d="M93 86H146V91H93V86Z" stroke="white" stroke-width="2"/>
</g>
<g filter="url(#filter20_d)">
<path d="M93 98H146V103H93V98Z" stroke="white" stroke-width="2"/>
</g>
<g filter="url(#filter21_d)">
<path d="M93 110H123V115H93V110Z" stroke="white" stroke-width="2"/>
</g>
<rect width="166" height="24" fill="black" fill-opacity="0" transform="translate(101 15)"/>
<g filter="url(#filter22_d)">
<path d="M102 19C102 17.3431 103.343 16 105 16H149C150.657 16 152 17.3431 152 19V38H102V19Z" stroke="white" stroke-width="2"/>
</g>
<g filter="url(#filter23_d)">
<path d="M159 26C159 24.3431 160.343 23 162 23H206C207.657 23 209 24.3431 209 26V38H159V26Z" stroke="white" stroke-width="2"/>
</g>
<g filter="url(#filter24_d)">
<path d="M216 26C216 24.3431 217.343 23 219 23H263C264.657 23 266 24.3431 266 26V38H216V26Z" stroke="white" stroke-width="2"/>
</g>
<rect x="110.192" y="15" width="2" height="13" transform="rotate(45 110.192 15)" fill="white"/>
<rect x="118.192" y="15" width="2" height="23.9485" transform="rotate(45 118.192 15)" fill="white"/>
<rect x="126.192" y="15" width="2" height="31.6344" transform="rotate(45 126.192 15)" fill="white"/>
<rect x="134.192" y="15" width="2" height="31.3842" transform="rotate(45 134.192 15)" fill="white"/>
<rect x="142.192" y="15" width="2" height="31.6668" transform="rotate(45 142.192 15)" fill="white"/>
<rect x="150.047" y="15.1455" width="2" height="31.284" transform="rotate(45 150.047 15.1455)" fill="white"/>
<rect x="151.526" y="21.666" width="2" height="22.2443" transform="rotate(45 151.526 21.666)" fill="white"/>
<rect x="151.437" y="29.7559" width="2" height="10.4862" transform="rotate(45 151.437 29.7559)" fill="white"/>
<path d="M45 4C45 3.44772 44.5523 3 44 3H41C40.4477 3 40 3.44772 40 4C40 4.55228 40.4477 5 41 5H44C44.5523 5 45 4.55228 45 4Z" fill="white"/>
<path d="M35 4C35 3.44772 34.5523 3 34 3H31C30.4477 3 30 3.44772 30 4C30 4.55228 30.4477 5 31 5H34C34.5523 5 35 4.55228 35 4Z" fill="white"/>
<path d="M25 4C25 3.44772 24.5523 3 24 3H21C20.4477 3 20 3.44772 20 4C20 4.55228 20.4477 5 21 5H24C24.5523 5 25 4.55228 25 4Z" fill="white"/>
<path d="M15 4C15 3.44772 14.5523 3 14 3H11C10.4477 3 10 3.44772 10 4C10 4.55228 10.4477 5 11 5H14C14.5523 5 15 4.55228 15 4Z" fill="white"/>
<path d="M5 4C5 3.44772 4.55228 3 4 3H1C0.447715 3 0 3.44772 0 4C0 4.55228 0.447715 5 1 5H4C4.55228 5 5 4.55228 5 4Z" fill="white"/>
<path d="M44 48C44.5523 48 45 47.5523 45 47V44C45 43.4477 44.5523 43 44 43C43.4477 43 43 43.4477 43 44V47C43 47.5523 43.4477 48 44 48Z" fill="white"/>
<path d="M44 38C44.5523 38 45 37.5523 45 37V34C45 33.4477 44.5523 33 44 33C43.4477 33 43 33.4477 43 34V37C43 37.5523 43.4477 38 44 38Z" fill="white"/>
<path d="M44 28C44.5523 28 45 27.5523 45 27V24C45 23.4477 44.5523 23 44 23C43.4477 23 43 23.4477 43 24V27C43 27.5523 43.4477 28 44 28Z" fill="white"/>
<path d="M44 18C44.5523 18 45 17.5523 45 17V14C45 13.4477 44.5523 13 44 13C43.4477 13 43 13.4477 43 14V17C43 17.5523 43.4477 18 44 18Z" fill="white"/>
<path d="M44 8C44.5523 8 45 7.55228 45 7V4C45 3.44772 44.5523 3 44 3C43.4477 3 43 3.44772 43 4V7C43 7.55228 43.4477 8 44 8Z" fill="white"/>
<path d="M0 47C0 47.5523 0.447715 48 1 48H4C4.55228 48 5 47.5523 5 47C5 46.4477 4.55228 46 4 46H1C0.447715 46 0 46.4477 0 47Z" fill="white"/>
<path d="M10 47C10 47.5523 10.4477 48 11 48H14C14.5523 48 15 47.5523 15 47C15 46.4477 14.5523 46 14 46H11C10.4477 46 10 46.4477 10 47Z" fill="white"/>
<path d="M20 47C20 47.5523 20.4477 48 21 48H24C24.5523 48 25 47.5523 25 47C25 46.4477 24.5523 46 24 46H21C20.4477 46 20 46.4477 20 47Z" fill="white"/>
<path d="M30 47C30 47.5523 30.4477 48 31 48H34C34.5523 48 35 47.5523 35 47C35 46.4477 34.5523 46 34 46H31C30.4477 46 30 46.4477 30 47Z" fill="white"/>
<path d="M40 47C40 47.5523 40.4477 48 41 48H44C44.5523 48 45 47.5523 45 47C45 46.4477 44.5523 46 44 46H41C40.4477 46 40 46.4477 40 47Z" fill="white"/>
<path d="M1 3C0.447715 3 0 3.44772 0 4V7C0 7.55228 0.447715 8 1 8C1.55228 8 2 7.55228 2 7V4C2 3.44772 1.55228 3 1 3Z" fill="white"/>
<path d="M1 13C0.447715 13 0 13.4477 0 14V17C0 17.5523 0.447715 18 1 18C1.55228 18 2 17.5523 2 17V14C2 13.4477 1.55228 13 1 13Z" fill="white"/>
<path d="M1 23C0.447715 23 0 23.4477 0 24V27C0 27.5523 0.447715 28 1 28C1.55228 28 2 27.5523 2 27V24C2 23.4477 1.55228 23 1 23Z" fill="white"/>
<path d="M1 33C0.447715 33 0 33.4477 0 34V37C0 37.5523 0.447715 38 1 38C1.55228 38 2 37.5523 2 37V34C2 33.4477 1.55228 33 1 33Z" fill="white"/>
<path d="M1 43C0.447715 43 0 43.4477 0 44V47C0 47.5523 0.447715 48 1 48C1.55228 48 2 47.5523 2 47V44C2 43.4477 1.55228 43 1 43Z" fill="white"/>
<path d="M45 54C45 53.4477 44.5523 53 44 53H41C40.4477 53 40 53.4477 40 54C40 54.5523 40.4477 55 41 55H44C44.5523 55 45 54.5523 45 54Z" fill="white"/>
<path d="M35 54C35 53.4477 34.5523 53 34 53H31C30.4477 53 30 53.4477 30 54C30 54.5523 30.4477 55 31 55H34C34.5523 55 35 54.5523 35 54Z" fill="white"/>
<path d="M25 54C25 53.4477 24.5523 53 24 53H21C20.4477 53 20 53.4477 20 54C20 54.5523 20.4477 55 21 55H24C24.5523 55 25 54.5523 25 54Z" fill="white"/>
<path d="M15 54C15 53.4477 14.5523 53 14 53H11C10.4477 53 10 53.4477 10 54C10 54.5523 10.4477 55 11 55H14C14.5523 55 15 54.5523 15 54Z" fill="white"/>
<path d="M5 54C5 53.4477 4.55228 53 4 53H1C0.447715 53 0 53.4477 0 54C0 54.5523 0.447715 55 1 55H4C4.55228 55 5 54.5523 5 54Z" fill="white"/>
<path d="M44 98C44.5523 98 45 97.5523 45 97V94C45 93.4477 44.5523 93 44 93C43.4477 93 43 93.4477 43 94V97C43 97.5523 43.4477 98 44 98Z" fill="white"/>
<path d="M44 88C44.5523 88 45 87.5523 45 87V84C45 83.4477 44.5523 83 44 83C43.4477 83 43 83.4477 43 84V87C43 87.5523 43.4477 88 44 88Z" fill="white"/>
<path d="M44 78C44.5523 78 45 77.5523 45 77V74C45 73.4477 44.5523 73 44 73C43.4477 73 43 73.4477 43 74V77C43 77.5523 43.4477 78 44 78Z" fill="white"/>
<path d="M44 68C44.5523 68 45 67.5523 45 67V64C45 63.4477 44.5523 63 44 63C43.4477 63 43 63.4477 43 64V67C43 67.5523 43.4477 68 44 68Z" fill="white"/>
<path d="M44 58C44.5523 58 45 57.5523 45 57V54C45 53.4477 44.5523 53 44 53C43.4477 53 43 53.4477 43 54V57C43 57.5523 43.4477 58 44 58Z" fill="white"/>
<path d="M0 97C0 97.5523 0.447715 98 1 98H4C4.55228 98 5 97.5523 5 97C5 96.4477 4.55228 96 4 96H1C0.447715 96 0 96.4477 0 97Z" fill="white"/>
<path d="M10 97C10 97.5523 10.4477 98 11 98H14C14.5523 98 15 97.5523 15 97C15 96.4477 14.5523 96 14 96H11C10.4477 96 10 96.4477 10 97Z" fill="white"/>
<path d="M20 97C20 97.5523 20.4477 98 21 98H24C24.5523 98 25 97.5523 25 97C25 96.4477 24.5523 96 24 96H21C20.4477 96 20 96.4477 20 97Z" fill="white"/>
<path d="M30 97C30 97.5523 30.4477 98 31 98H34C34.5523 98 35 97.5523 35 97C35 96.4477 34.5523 96 34 96H31C30.4477 96 30 96.4477 30 97Z" fill="white"/>
<path d="M40 97C40 97.5523 40.4477 98 41 98H44C44.5523 98 45 97.5523 45 97C45 96.4477 44.5523 96 44 96H41C40.4477 96 40 96.4477 40 97Z" fill="white"/>
<path d="M1 53C0.447715 53 0 53.4477 0 54V57C0 57.5523 0.447715 58 1 58C1.55228 58 2 57.5523 2 57V54C2 53.4477 1.55228 53 1 53Z" fill="white"/>
<path d="M1 63C0.447715 63 0 63.4477 0 64V67C0 67.5523 0.447715 68 1 68C1.55228 68 2 67.5523 2 67V64C2 63.4477 1.55228 63 1 63Z" fill="white"/>
<path d="M1 73C0.447715 73 0 73.4477 0 74V77C0 77.5523 0.447715 78 1 78C1.55228 78 2 77.5523 2 77V74C2 73.4477 1.55228 73 1 73Z" fill="white"/>
<path d="M1 83C0.447715 83 0 83.4477 0 84V87C0 87.5523 0.447715 88 1 88C1.55228 88 2 87.5523 2 87V84C2 83.4477 1.55228 83 1 83Z" fill="white"/>
<path d="M1 93C0.447715 93 0 93.4477 0 94V97C0 97.5523 0.447715 98 1 98C1.55228 98 2 97.5523 2 97V94C2 93.4477 1.55228 93 1 93Z" fill="white"/>
<path d="M95 4C95 3.44772 94.5523 3 94 3H91C90.4477 3 90 3.44772 90 4C90 4.55228 90.4477 5 91 5H94C94.5523 5 95 4.55228 95 4Z" fill="white"/>
<path d="M85 4C85 3.44772 84.5523 3 84 3H81C80.4477 3 80 3.44772 80 4C80 4.55228 80.4477 5 81 5H84C84.5523 5 85 4.55228 85 4Z" fill="white"/>
<path d="M75 4C75 3.44772 74.5523 3 74 3H71C70.4477 3 70 3.44772 70 4C70 4.55228 70.4477 5 71 5H74C74.5523 5 75 4.55228 75 4Z" fill="white"/>
<path d="M65 4C65 3.44772 64.5523 3 64 3H61C60.4477 3 60 3.44772 60 4C60 4.55228 60.4477 5 61 5H64C64.5523 5 65 4.55228 65 4Z" fill="white"/>
<path d="M55 4C55 3.44772 54.5523 3 54 3H51C50.4477 3 50 3.44772 50 4C50 4.55228 50.4477 5 51 5H54C54.5523 5 55 4.55228 55 4Z" fill="white"/>
<path d="M94 28C94.5523 28 95 27.5523 95 27V24C95 23.4477 94.5523 23 94 23C93.4477 23 93 23.4477 93 24V27C93 27.5523 93.4477 28 94 28Z" fill="white"/>
<path d="M94 18C94.5523 18 95 17.5523 95 17V14C95 13.4477 94.5523 13 94 13C93.4477 13 93 13.4477 93 14V17C93 17.5523 93.4477 18 94 18Z" fill="white"/>
<path d="M94 8C94.5523 8 95 7.55228 95 7V4C95 3.44772 94.5523 3 94 3C93.4477 3 93 3.44772 93 4V7C93 7.55228 93.4477 8 94 8Z" fill="white"/>
<path d="M50 97C50 97.5523 50.4477 98 51 98H54C54.5523 98 55 97.5523 55 97C55 96.4477 54.5523 96 54 96H51C50.4477 96 50 96.4477 50 97Z" fill="white"/>
<path d="M60 97C60 97.5523 60.4477 98 61 98H64C64.5523 98 65 97.5523 65 97C65 96.4477 64.5523 96 64 96H61C60.4477 96 60 96.4477 60 97Z" fill="white"/>
<path d="M70 97C70 97.5523 70.4477 98 71 98H74C74.5523 98 75 97.5523 75 97C75 96.4477 74.5523 96 74 96H71C70.4477 96 70 96.4477 70 97Z" fill="white"/>
<path d="M51 3C50.4477 3 50 3.44772 50 4V7C50 7.55228 50.4477 8 51 8C51.5523 8 52 7.55228 52 7V4C52 3.44772 51.5523 3 51 3Z" fill="white"/>
<path d="M51 13C50.4477 13 50 13.4477 50 14V17C50 17.5523 50.4477 18 51 18C51.5523 18 52 17.5523 52 17V14C52 13.4477 51.5523 13 51 13Z" fill="white"/>
<path d="M51 23C50.4477 23 50 23.4477 50 24V27C50 27.5523 50.4477 28 51 28C51.5523 28 52 27.5523 52 27V24C52 23.4477 51.5523 23 51 23Z" fill="white"/>
<path d="M51 83C50.4477 83 50 83.4477 50 84V87C50 87.5523 50.4477 88 51 88C51.5523 88 52 87.5523 52 87V84C52 83.4477 51.5523 83 51 83Z" fill="white"/>
<path d="M51 93C50.4477 93 50 93.4477 50 94V97C50 97.5523 50.4477 98 51 98C51.5523 98 52 97.5523 52 97V94C52 93.4477 51.5523 93 51 93Z" fill="white"/>
<path d="M94 38C94.5523 38 95 37.5523 95 37V34C95 33.4477 94.5523 33 94 33C93.4477 33 93 33.4477 93 34V37C93 37.5523 93.4477 38 94 38Z" fill="white"/>
<path d="M51 33C50.4477 33 50 33.4477 50 34V37C50 37.5523 50.4477 38 51 38C51.5523 38 52 37.5523 52 37V34C52 33.4477 51.5523 33 51 33Z" fill="white"/>
<path d="M51 43C50.4477 43 50 43.4477 50 44V47C50 47.5523 50.4477 48 51 48C51.5523 48 52 47.5523 52 47V44C52 43.4477 51.5523 43 51 43Z" fill="white"/>
<path d="M51 43C50.4477 43 50 43.4477 50 44V47C50 47.5523 50.4477 48 51 48C51.5523 48 52 47.5523 52 47V44C52 43.4477 51.5523 43 51 43Z" fill="white"/>
<path d="M51 53C50.4477 53 50 53.4477 50 54V57C50 57.5523 50.4477 58 51 58C51.5523 58 52 57.5523 52 57V54C52 53.4477 51.5523 53 51 53Z" fill="white"/>
<path d="M51 53C50.4477 53 50 53.4477 50 54V57C50 57.5523 50.4477 58 51 58C51.5523 58 52 57.5523 52 57V54C52 53.4477 51.5523 53 51 53Z" fill="white"/>
<path d="M51 63C50.4477 63 50 63.4477 50 64V67C50 67.5523 50.4477 68 51 68C51.5523 68 52 67.5523 52 67V64C52 63.4477 51.5523 63 51 63Z" fill="white"/>
<path d="M51 43C50.4477 43 50 43.4477 50 44V47C50 47.5523 50.4477 48 51 48C51.5523 48 52 47.5523 52 47V44C52 43.4477 51.5523 43 51 43Z" fill="white"/>
<path d="M51 53C50.4477 53 50 53.4477 50 54V57C50 57.5523 50.4477 58 51 58C51.5523 58 52 57.5523 52 57V54C52 53.4477 51.5523 53 51 53Z" fill="white"/>
<path d="M51 73C50.4477 73 50 73.4477 50 74V77C50 77.5523 50.4477 78 51 78C51.5523 78 52 77.5523 52 77V74C52 73.4477 51.5523 73 51 73Z" fill="white"/>
<defs>
<filter id="filter0_d" x="62" y="34" width="115" height="91" filterUnits="userSpaceOnUse" color-interpolation-filters="sRGB">
<feFlood flood-opacity="0" result="BackgroundImageFix"/>
<feColorMatrix in="SourceAlpha" type="matrix" values="0 0 0 0 0 0 0 0 0 0 0 0 0 0 0 0 0 0 255 0"/>
<feOffset dy="15"/>
<feGaussianBlur stdDeviation="15"/>
<feColorMatrix type="matrix" values="0 0 0 0 0.203922 0 0 0 0 0.192157 0 0 0 0 0.294118 0 0 0 0.2 0"/>
<feBlend mode="normal" in2="BackgroundImageFix" result="effect1_dropShadow"/>
<feBlend mode="normal" in="SourceGraphic" in2="effect1_dropShadow" result="shape"/>
</filter>
<filter id="filter1_d" x="127" y="34" width="79" height="79" filterUnits="userSpaceOnUse" color-interpolation-filters="sRGB">
<feFlood flood-opacity="0" result="BackgroundImageFix"/>
<feColorMatrix in="SourceAlpha" type="matrix" values="0 0 0 0 0 0 0 0 0 0 0 0 0 0 0 0 0 0 255 0"/>
<feOffset dy="15"/>
<feGaussianBlur stdDeviation="15"/>
<feColorMatrix type="matrix" values="0 0 0 0 0.203922 0 0 0 0 0.192157 0 0 0 0 0.294118 0 0 0 0.2 0"/>
<feBlend mode="normal" in2="BackgroundImageFix" result="effect1_dropShadow"/>
<feBlend mode="normal" in="SourceGraphic" in2="effect1_dropShadow" result="shape"/>
</filter>
<filter id="filter2_d" x="151" y="34" width="91" height="67" filterUnits="userSpaceOnUse" color-interpolation-filters="sRGB">
<feFlood flood-opacity="0" result="BackgroundImageFix"/>
<feColorMatrix in="SourceAlpha" type="matrix" values="0 0 0 0 0 0 0 0 0 0 0 0 0 0 0 0 0 0 255 0"/>
<feOffset dy="15"/>
<feGaussianBlur stdDeviation="15"/>
<feColorMatrix type="matrix" values="0 0 0 0 0.203922 0 0 0 0 0.192157 0 0 0 0 0.294118 0 0 0 0.2 0"/>
<feBlend mode="normal" in2="BackgroundImageFix" result="effect1_dropShadow"/>
<feBlend mode="normal" in="SourceGraphic" in2="effect1_dropShadow" result="shape"/>
</filter>
<filter id="filter3_d" x="151" y="46" width="75" height="67" filterUnits="userSpaceOnUse" color-interpolation-filters="sRGB">
<feFlood flood-opacity="0" result="BackgroundImageFix"/>
<feColorMatrix in="SourceAlpha" type="matrix" values="0 0 0 0 0 0 0 0 0 0 0 0 0 0 0 0 0 0 255 0"/>
<feOffset dy="15"/>
<feGaussianBlur stdDeviation="15"/>
<feColorMatrix type="matrix" values="0 0 0 0 0.203922 0 0 0 0 0.192157 0 0 0 0 0.294118 0 0 0 0.2 0"/>
<feBlend mode="normal" in2="BackgroundImageFix" result="effect1_dropShadow"/>
<feBlend mode="normal" in="SourceGraphic" in2="effect1_dropShadow" result="shape"/>
</filter>
<filter id="filter4_d" x="127" y="58" width="79" height="79" filterUnits="userSpaceOnUse" color-interpolation-filters="sRGB">
<feFlood flood-opacity="0" result="BackgroundImageFix"/>
<feColorMatrix in="SourceAlpha" type="matrix" values="0 0 0 0 0 0 0 0 0 0 0 0 0 0 0 0 0 0 255 0"/>
<feOffset dy="15"/>
<feGaussianBlur stdDeviation="15"/>
<feColorMatrix type="matrix" values="0 0 0 0 0.203922 0 0 0 0 0.192157 0 0 0 0 0.294118 0 0 0 0.2 0"/>
<feBlend mode="normal" in2="BackgroundImageFix" result="effect1_dropShadow"/>
<feBlend mode="normal" in="SourceGraphic" in2="effect1_dropShadow" result="shape"/>
</filter>
<filter id="filter5_d" x="151" y="58" width="91" height="67" filterUnits="userSpaceOnUse" color-interpolation-filters="sRGB">
<feFlood flood-opacity="0" result="BackgroundImageFix"/>
<feColorMatrix in="SourceAlpha" type="matrix" values="0 0 0 0 0 0 0 0 0 0 0 0 0 0 0 0 0 0 255 0"/>
<feOffset dy="15"/>
<feGaussianBlur stdDeviation="15"/>
<feColorMatrix type="matrix" values="0 0 0 0 0.203922 0 0 0 0 0.192157 0 0 0 0 0.294118 0 0 0 0.2 0"/>
<feBlend mode="normal" in2="BackgroundImageFix" result="effect1_dropShadow"/>
<feBlend mode="normal" in="SourceGraphic" in2="effect1_dropShadow" result="shape"/>
</filter>
<filter id="filter6_d" x="151" y="70" width="75" height="67" filterUnits="userSpaceOnUse" color-interpolation-filters="sRGB">
<feFlood flood-opacity="0" result="BackgroundImageFix"/>
<feColorMatrix in="SourceAlpha" type="matrix" values="0 0 0 0 0 0 0 0 0 0 0 0 0 0 0 0 0 0 255 0"/>
<feOffset dy="15"/>
<feGaussianBlur stdDeviation="15"/>
<feColorMatrix type="matrix" values="0 0 0 0 0.203922 0 0 0 0 0.192157 0 0 0 0 0.294118 0 0 0 0.2 0"/>
<feBlend mode="normal" in2="BackgroundImageFix" result="effect1_dropShadow"/>
<feBlend mode="normal" in="SourceGraphic" in2="effect1_dropShadow" result="shape"/>
</filter>
<filter id="filter7_d" x="127" y="82" width="79" height="79" filterUnits="userSpaceOnUse" color-interpolation-filters="sRGB">
<feFlood flood-opacity="0" result="BackgroundImageFix"/>
<feColorMatrix in="SourceAlpha" type="matrix" values="0 0 0 0 0 0 0 0 0 0 0 0 0 0 0 0 0 0 255 0"/>
<feOffset dy="15"/>
<feGaussianBlur stdDeviation="15"/>
<feColorMatrix type="matrix" values="0 0 0 0 0.203922 0 0 0 0 0.192157 0 0 0 0 0.294118 0 0 0 0.2 0"/>
<feBlend mode="normal" in2="BackgroundImageFix" result="effect1_dropShadow"/>
<feBlend mode="normal" in="SourceGraphic" in2="effect1_dropShadow" result="shape"/>
</filter>
<filter id="filter8_d" x="151" y="82" width="91" height="67" filterUnits="userSpaceOnUse" color-interpolation-filters="sRGB">
<feFlood flood-opacity="0" result="BackgroundImageFix"/>
<feColorMatrix in="SourceAlpha" type="matrix" values="0 0 0 0 0 0 0 0 0 0 0 0 0 0 0 0 0 0 255 0"/>
<feOffset dy="15"/>
<feGaussianBlur stdDeviation="15"/>
<feColorMatrix type="matrix" values="0 0 0 0 0.203922 0 0 0 0 0.192157 0 0 0 0 0.294118 0 0 0 0.2 0"/>
<feBlend mode="normal" in2="BackgroundImageFix" result="effect1_dropShadow"/>
<feBlend mode="normal" in="SourceGraphic" in2="effect1_dropShadow" result="shape"/>
</filter>
<filter id="filter9_d" x="151" y="94" width="75" height="67" filterUnits="userSpaceOnUse" color-interpolation-filters="sRGB">
<feFlood flood-opacity="0" result="BackgroundImageFix"/>
<feColorMatrix in="SourceAlpha" type="matrix" values="0 0 0 0 0 0 0 0 0 0 0 0 0 0 0 0 0 0 255 0"/>
<feOffset dy="15"/>
<feGaussianBlur stdDeviation="15"/>
<feColorMatrix type="matrix" values="0 0 0 0 0.203922 0 0 0 0 0.192157 0 0 0 0 0.294118 0 0 0 0.2 0"/>
<feBlend mode="normal" in2="BackgroundImageFix" result="effect1_dropShadow"/>
<feBlend mode="normal" in="SourceGraphic" in2="effect1_dropShadow" result="shape"/>
</filter>
<filter id="filter10_d" x="192" y="34" width="79" height="79" filterUnits="userSpaceOnUse" color-interpolation-filters="sRGB">
<feFlood flood-opacity="0" result="BackgroundImageFix"/>
<feColorMatrix in="SourceAlpha" type="matrix" values="0 0 0 0 0 0 0 0 0 0 0 0 0 0 0 0 0 0 255 0"/>
<feOffset dy="15"/>
<feGaussianBlur stdDeviation="15"/>
<feColorMatrix type="matrix" values="0 0 0 0 0.203922 0 0 0 0 0.192157 0 0 0 0 0.294118 0 0 0 0.2 0"/>
<feBlend mode="normal" in2="BackgroundImageFix" result="effect1_dropShadow"/>
<feBlend mode="normal" in="SourceGraphic" in2="effect1_dropShadow" result="shape"/>
</filter>
<filter id="filter11_d" x="216" y="34" width="91" height="67" filterUnits="userSpaceOnUse" color-interpolation-filters="sRGB">
<feFlood flood-opacity="0" result="BackgroundImageFix"/>
<feColorMatrix in="SourceAlpha" type="matrix" values="0 0 0 0 0 0 0 0 0 0 0 0 0 0 0 0 0 0 255 0"/>
<feOffset dy="15"/>
<feGaussianBlur stdDeviation="15"/>
<feColorMatrix type="matrix" values="0 0 0 0 0.203922 0 0 0 0 0.192157 0 0 0 0 0.294118 0 0 0 0.2 0"/>
<feBlend mode="normal" in2="BackgroundImageFix" result="effect1_dropShadow"/>
<feBlend mode="normal" in="SourceGraphic" in2="effect1_dropShadow" result="shape"/>
</filter>
<filter id="filter12_d" x="216" y="46" width="75" height="67" filterUnits="userSpaceOnUse" color-interpolation-filters="sRGB">
<feFlood flood-opacity="0" result="BackgroundImageFix"/>
<feColorMatrix in="SourceAlpha" type="matrix" values="0 0 0 0 0 0 0 0 0 0 0 0 0 0 0 0 0 0 255 0"/>
<feOffset dy="15"/>
<feGaussianBlur stdDeviation="15"/>
<feColorMatrix type="matrix" values="0 0 0 0 0.203922 0 0 0 0 0.192157 0 0 0 0 0.294118 0 0 0 0.2 0"/>
<feBlend mode="normal" in2="BackgroundImageFix" result="effect1_dropShadow"/>
<feBlend mode="normal" in="SourceGraphic" in2="effect1_dropShadow" result="shape"/>
</filter>
<filter id="filter13_d" x="192" y="58" width="79" height="79" filterUnits="userSpaceOnUse" color-interpolation-filters="sRGB">
<feFlood flood-opacity="0" result="BackgroundImageFix"/>
<feColorMatrix in="SourceAlpha" type="matrix" values="0 0 0 0 0 0 0 0 0 0 0 0 0 0 0 0 0 0 255 0"/>
<feOffset dy="15"/>
<feGaussianBlur stdDeviation="15"/>
<feColorMatrix type="matrix" values="0 0 0 0 0.203922 0 0 0 0 0.192157 0 0 0 0 0.294118 0 0 0 0.2 0"/>
<feBlend mode="normal" in2="BackgroundImageFix" result="effect1_dropShadow"/>
<feBlend mode="normal" in="SourceGraphic" in2="effect1_dropShadow" result="shape"/>
</filter>
<filter id="filter14_d" x="216" y="58" width="91" height="67" filterUnits="userSpaceOnUse" color-interpolation-filters="sRGB">
<feFlood flood-opacity="0" result="BackgroundImageFix"/>
<feColorMatrix in="SourceAlpha" type="matrix" values="0 0 0 0 0 0 0 0 0 0 0 0 0 0 0 0 0 0 255 0"/>
<feOffset dy="15"/>
<feGaussianBlur stdDeviation="15"/>
<feColorMatrix type="matrix" values="0 0 0 0 0.203922 0 0 0 0 0.192157 0 0 0 0 0.294118 0 0 0 0.2 0"/>
<feBlend mode="normal" in2="BackgroundImageFix" result="effect1_dropShadow"/>
<feBlend mode="normal" in="SourceGraphic" in2="effect1_dropShadow" result="shape"/>
</filter>
<filter id="filter15_d" x="216" y="70" width="75" height="67" filterUnits="userSpaceOnUse" color-interpolation-filters="sRGB">
<feFlood flood-opacity="0" result="BackgroundImageFix"/>
<feColorMatrix in="SourceAlpha" type="matrix" values="0 0 0 0 0 0 0 0 0 0 0 0 0 0 0 0 0 0 255 0"/>
<feOffset dy="15"/>
<feGaussianBlur stdDeviation="15"/>
<feColorMatrix type="matrix" values="0 0 0 0 0.203922 0 0 0 0 0.192157 0 0 0 0 0.294118 0 0 0 0.2 0"/>
<feBlend mode="normal" in2="BackgroundImageFix" result="effect1_dropShadow"/>
<feBlend mode="normal" in="SourceGraphic" in2="effect1_dropShadow" result="shape"/>
</filter>
<filter id="filter16_d" x="192" y="82" width="79" height="79" filterUnits="userSpaceOnUse" color-interpolation-filters="sRGB">
<feFlood flood-opacity="0" result="BackgroundImageFix"/>
<feColorMatrix in="SourceAlpha" type="matrix" values="0 0 0 0 0 0 0 0 0 0 0 0 0 0 0 0 0 0 255 0"/>
<feOffset dy="15"/>
<feGaussianBlur stdDeviation="15"/>
<feColorMatrix type="matrix" values="0 0 0 0 0.203922 0 0 0 0 0.192157 0 0 0 0 0.294118 0 0 0 0.2 0"/>
<feBlend mode="normal" in2="BackgroundImageFix" result="effect1_dropShadow"/>
<feBlend mode="normal" in="SourceGraphic" in2="effect1_dropShadow" result="shape"/>
</filter>
<filter id="filter17_d" x="216" y="82" width="91" height="67" filterUnits="userSpaceOnUse" color-interpolation-filters="sRGB">
<feFlood flood-opacity="0" result="BackgroundImageFix"/>
<feColorMatrix in="SourceAlpha" type="matrix" values="0 0 0 0 0 0 0 0 0 0 0 0 0 0 0 0 0 0 255 0"/>
<feOffset dy="15"/>
<feGaussianBlur stdDeviation="15"/>
<feColorMatrix type="matrix" values="0 0 0 0 0.203922 0 0 0 0 0.192157 0 0 0 0 0.294118 0 0 0 0.2 0"/>
<feBlend mode="normal" in2="BackgroundImageFix" result="effect1_dropShadow"/>
<feBlend mode="normal" in="SourceGraphic" in2="effect1_dropShadow" result="shape"/>
</filter>
<filter id="filter18_d" x="216" y="94" width="75" height="67" filterUnits="userSpaceOnUse" color-interpolation-filters="sRGB">
<feFlood flood-opacity="0" result="BackgroundImageFix"/>
<feColorMatrix in="SourceAlpha" type="matrix" values="0 0 0 0 0 0 0 0 0 0 0 0 0 0 0 0 0 0 255 0"/>
<feOffset dy="15"/>
<feGaussianBlur stdDeviation="15"/>
<feColorMatrix type="matrix" values="0 0 0 0 0.203922 0 0 0 0 0.192157 0 0 0 0 0.294118 0 0 0 0.2 0"/>
<feBlend mode="normal" in2="BackgroundImageFix" result="effect1_dropShadow"/>
<feBlend mode="normal" in="SourceGraphic" in2="effect1_dropShadow" result="shape"/>
</filter>
<filter id="filter19_d" x="62" y="70" width="115" height="67" filterUnits="userSpaceOnUse" color-interpolation-filters="sRGB">
<feFlood flood-opacity="0" result="BackgroundImageFix"/>
<feColorMatrix in="SourceAlpha" type="matrix" values="0 0 0 0 0 0 0 0 0 0 0 0 0 0 0 0 0 0 255 0"/>
<feOffset dy="15"/>
<feGaussianBlur stdDeviation="15"/>
<feColorMatrix type="matrix" values="0 0 0 0 0.203922 0 0 0 0 0.192157 0 0 0 0 0.294118 0 0 0 0.2 0"/>
<feBlend mode="normal" in2="BackgroundImageFix" result="effect1_dropShadow"/>
<feBlend mode="normal" in="SourceGraphic" in2="effect1_dropShadow" result="shape"/>
</filter>
<filter id="filter20_d" x="62" y="82" width="115" height="67" filterUnits="userSpaceOnUse" color-interpolation-filters="sRGB">
<feFlood flood-opacity="0" result="BackgroundImageFix"/>
<feColorMatrix in="SourceAlpha" type="matrix" values="0 0 0 0 0 0 0 0 0 0 0 0 0 0 0 0 0 0 255 0"/>
<feOffset dy="15"/>
<feGaussianBlur stdDeviation="15"/>
<feColorMatrix type="matrix" values="0 0 0 0 0.203922 0 0 0 0 0.192157 0 0 0 0 0.294118 0 0 0 0.2 0"/>
<feBlend mode="normal" in2="BackgroundImageFix" result="effect1_dropShadow"/>
<feBlend mode="normal" in="SourceGraphic" in2="effect1_dropShadow" result="shape"/>
</filter>
<filter id="filter21_d" x="62" y="94" width="92" height="67" filterUnits="userSpaceOnUse" color-interpolation-filters="sRGB">
<feFlood flood-opacity="0" result="BackgroundImageFix"/>
<feColorMatrix in="SourceAlpha" type="matrix" values="0 0 0 0 0 0 0 0 0 0 0 0 0 0 0 0 0 0 255 0"/>
<feOffset dy="15"/>
<feGaussianBlur stdDeviation="15"/>
<feColorMatrix type="matrix" values="0 0 0 0 0.203922 0 0 0 0 0.192157 0 0 0 0 0.294118 0 0 0 0.2 0"/>
<feBlend mode="normal" in2="BackgroundImageFix" result="effect1_dropShadow"/>
<feBlend mode="normal" in="SourceGraphic" in2="effect1_dropShadow" result="shape"/>
</filter>
<filter id="filter22_d" x="71" y="0" width="112" height="84" filterUnits="userSpaceOnUse" color-interpolation-filters="sRGB">
<feFlood flood-opacity="0" result="BackgroundImageFix"/>
<feColorMatrix in="SourceAlpha" type="matrix" values="0 0 0 0 0 0 0 0 0 0 0 0 0 0 0 0 0 0 255 0"/>
<feOffset dy="15"/>
<feGaussianBlur stdDeviation="15"/>
<feColorMatrix type="matrix" values="0 0 0 0 0.203922 0 0 0 0 0.192157 0 0 0 0 0.294118 0 0 0 0.2 0"/>
<feBlend mode="normal" in2="BackgroundImageFix" result="effect1_dropShadow"/>
<feBlend mode="normal" in="SourceGraphic" in2="effect1_dropShadow" result="shape"/>
</filter>
<filter id="filter23_d" x="128" y="7" width="112" height="77" filterUnits="userSpaceOnUse" color-interpolation-filters="sRGB">
<feFlood flood-opacity="0" result="BackgroundImageFix"/>
<feColorMatrix in="SourceAlpha" type="matrix" values="0 0 0 0 0 0 0 0 0 0 0 0 0 0 0 0 0 0 255 0"/>
<feOffset dy="15"/>
<feGaussianBlur stdDeviation="15"/>
<feColorMatrix type="matrix" values="0 0 0 0 0.203922 0 0 0 0 0.192157 0 0 0 0 0.294118 0 0 0 0.2 0"/>
<feBlend mode="normal" in2="BackgroundImageFix" result="effect1_dropShadow"/>
<feBlend mode="normal" in="SourceGraphic" in2="effect1_dropShadow" result="shape"/>
</filter>
<filter id="filter24_d" x="185" y="7" width="112" height="77" filterUnits="userSpaceOnUse" color-interpolation-filters="sRGB">
<feFlood flood-opacity="0" result="BackgroundImageFix"/>
<feColorMatrix in="SourceAlpha" type="matrix" values="0 0 0 0 0 0 0 0 0 0 0 0 0 0 0 0 0 0 255 0"/>
<feOffset dy="15"/>
<feGaussianBlur stdDeviation="15"/>
<feColorMatrix type="matrix" values="0 0 0 0 0.203922 0 0 0 0 0.192157 0 0 0 0 0.294118 0 0 0 0.2 0"/>
<feBlend mode="normal" in2="BackgroundImageFix" result="effect1_dropShadow"/>
<feBlend mode="normal" in="SourceGraphic" in2="effect1_dropShadow" result="shape"/>
</filter>
</defs>
</svg>
