<svg width="297" height="169" viewBox="0 0 297 169" fill="none" xmlns="http://www.w3.org/2000/svg">
<rect width="284" height="124" fill="black" fill-opacity="0"/>
<rect x="110" y="122" width="87" height="69" transform="rotate(-90 110 122)" fill="url(#paint0_linear)"/>
<g filter="url(#filter0_d)">
<rect x="109" y="34" width="71" height="89" rx="3" stroke="white" stroke-width="2"/>
</g>
<path d="M146.656 67.875C146.297 67.875 145.938 67.8975 145.578 67.9424C145.234 67.9723 144.897 68.0247 144.567 68.0996C144.537 68.0996 144.515 68.0996 144.5 68.0996C143.452 68.3691 142.486 68.7884 141.603 69.3574C140.734 69.9264 139.978 70.6152 139.334 71.4238C138.705 72.2174 138.211 73.1084 137.852 74.0967C137.492 75.085 137.312 76.1257 137.312 77.2188V79.8018C136.953 79.9365 136.526 80.1162 136.032 80.3408C135.538 80.5505 135.066 80.805 134.617 81.1045C134.168 81.404 133.786 81.7334 133.472 82.0928C133.157 82.4521 133 82.8415 133 83.2607C133 83.8896 133.382 84.4886 134.146 85.0576C134.924 85.6117 135.86 86.1058 136.953 86.54C138.046 86.9593 139.192 87.2962 140.39 87.5508C141.603 87.8053 142.636 87.9326 143.489 87.9326C144.478 87.9326 145.571 87.6706 146.769 87.1465C147.981 86.6074 149.127 86.0085 150.205 85.3496C151.283 84.6758 152.219 84.0319 153.013 83.418C153.821 82.804 154.315 82.4147 154.495 82.25C154.884 82.0703 155.176 81.9206 155.371 81.8008C155.566 81.666 155.678 81.5986 155.708 81.5986C155.813 81.5238 155.888 81.4414 155.933 81.3516C155.978 81.2467 156 81.1419 156 81.0371V77.2188C156 75.931 155.753 74.7181 155.259 73.5801C154.78 72.4421 154.113 71.4538 153.26 70.6152C152.421 69.7617 151.433 69.0954 150.295 68.6162C149.157 68.1221 147.944 67.875 146.656 67.875ZM138.75 77.2188C138.75 76.3053 138.9 75.4368 139.199 74.6133C139.499 73.7747 139.91 73.026 140.435 72.3672C140.959 71.6934 141.58 71.1169 142.299 70.6377C143.018 70.1585 143.796 69.8141 144.635 69.6045C145.578 69.8291 146.432 70.1885 147.195 70.6826C147.974 71.1618 148.64 71.7383 149.194 72.4121C149.763 73.0859 150.198 73.8346 150.497 74.6582C150.812 75.4668 150.969 76.3203 150.969 77.2188V81.8906C150.4 81.9954 149.756 82.0853 149.037 82.1602C148.318 82.2201 147.525 82.25 146.656 82.25C145.503 82.25 144.478 82.1901 143.579 82.0703C142.696 81.9355 141.924 81.7858 141.266 81.6211C140.622 81.4564 140.09 81.2842 139.671 81.1045C139.252 80.9248 138.945 80.7826 138.75 80.6777V77.2188ZM143.489 86.4951C142.516 86.4951 141.498 86.3678 140.435 86.1133C139.371 85.8587 138.391 85.5592 137.492 85.2148C136.609 84.8555 135.875 84.5036 135.291 84.1592C134.722 83.7998 134.438 83.5228 134.438 83.3281C134.438 83.1185 134.729 82.8265 135.313 82.4521C135.897 82.0628 136.586 81.7109 137.38 81.3965C137.425 81.4564 137.462 81.5088 137.492 81.5537C137.522 81.5986 137.56 81.6361 137.604 81.666C137.634 81.666 137.829 81.7708 138.188 81.9805C138.548 82.1901 139.094 82.4222 139.828 82.6768C140.562 82.9313 141.49 83.1634 142.613 83.373C143.751 83.5827 145.099 83.6875 146.656 83.6875C147.405 83.6875 148.109 83.6576 148.768 83.5977C149.426 83.5378 150.04 83.4704 150.609 83.3955C150.04 83.7699 149.434 84.1442 148.79 84.5186C148.161 84.8929 147.532 85.2298 146.903 85.5293C146.289 85.8138 145.69 86.0459 145.106 86.2256C144.522 86.4053 143.983 86.4951 143.489 86.4951ZM154.562 80.6777C154.383 80.7826 154.113 80.9173 153.754 81.082C153.395 81.2318 152.945 81.3815 152.406 81.5312V77.2188C152.406 76.4102 152.301 75.6315 152.092 74.8828C151.882 74.1191 151.583 73.4079 151.193 72.749C150.819 72.0752 150.355 71.4613 149.801 70.9072C149.247 70.3532 148.633 69.8665 147.959 69.4473C148.887 69.597 149.756 69.904 150.564 70.3682C151.373 70.8324 152.069 71.4089 152.653 72.0977C153.252 72.7865 153.716 73.5726 154.046 74.4561C154.39 75.3245 154.562 76.2454 154.562 77.2188V80.6777Z" fill="white"/>
<rect width="89" height="66" fill="black" fill-opacity="0" transform="translate(195 31)"/>
<g filter="url(#filter1_d)">
<path d="M213 50H266V55H213V50Z" stroke="white" stroke-width="2"/>
</g>
<g filter="url(#filter2_d)">
<path d="M213 62H266V67H213V62Z" stroke="white" stroke-width="2"/>
</g>
<g filter="url(#filter3_d)">
<path d="M213 74H243V79H213V74Z" stroke="white" stroke-width="2"/>
</g>
<rect width="89" height="66" fill="black" fill-opacity="0" transform="translate(195 31)"/>
<rect x="199" y="36" width="81" height="57" stroke="white" stroke-width="2"/>
<rect x="195" y="32" width="7" height="7" rx="3.5" fill="white"/>
<rect x="237" y="31" width="7" height="7" rx="3.5" fill="white"/>
<rect x="277" y="32" width="7" height="7" rx="3.5" fill="white"/>
<rect x="195" y="90" width="7" height="7" rx="3.5" fill="white"/>
<rect x="277" y="90" width="7" height="7" rx="3.5" fill="white"/>
<rect x="195" y="61" width="7" height="7" rx="3.5" fill="white"/>
<rect x="277" y="60" width="7" height="7" rx="3.5" fill="white"/>
<rect x="232" y="90" width="7" height="7" rx="3.5" fill="white"/>
<path d="M55 56C55 55.4477 54.5523 55 54 55H51C50.4477 55 50 55.4477 50 56C50 56.5523 50.4477 57 51 57H54C54.5523 57 55 56.5523 55 56Z" fill="white"/>
<path d="M45 56C45 55.4477 44.5523 55 44 55H41C40.4477 55 40 55.4477 40 56C40 56.5523 40.4477 57 41 57H44C44.5523 57 45 56.5523 45 56Z" fill="white"/>
<path d="M25 56C25 55.4477 24.5523 55 24 55H21C20.4477 55 20 55.4477 20 56C20 56.5523 20.4477 57 21 57H24C24.5523 57 25 56.5523 25 56Z" fill="white"/>
<path d="M15 56C15 55.4477 14.5523 55 14 55H11C10.4477 55 10 55.4477 10 56C10 56.5523 10.4477 57 11 57H14C14.5523 57 15 56.5523 15 56Z" fill="white"/>
<path d="M5 56C5 55.4477 4.55228 55 4 55H1C0.447715 55 0 55.4477 0 56C0 56.5523 0.447715 57 1 57H4C4.55228 57 5 56.5523 5 56Z" fill="white"/>
<path d="M54 122C54.5523 122 55 121.552 55 121V118C55 117.448 54.5523 117 54 117C53.4477 117 53 117.448 53 118V121C53 121.552 53.4477 122 54 122Z" fill="white"/>
<path d="M54 91C54.5523 91 55 90.5523 55 90V87C55 86.4477 54.5523 86 54 86C53.4477 86 53 86.4477 53 87V90C53 90.5523 53.4477 91 54 91Z" fill="white"/>
<path d="M54 80C54.5523 80 55 79.5523 55 79V76C55 75.4477 54.5523 75 54 75C53.4477 75 53 75.4477 53 76V79C53 79.5523 53.4477 80 54 80Z" fill="white"/>
<path d="M54 70C54.5523 70 55 69.5523 55 69V66C55 65.4477 54.5523 65 54 65C53.4477 65 53 65.4477 53 66V69C53 69.5523 53.4477 70 54 70Z" fill="white"/>
<path d="M54 60C54.5523 60 55 59.5523 55 59V56C55 55.4477 54.5523 55 54 55C53.4477 55 53 55.4477 53 56V59C53 59.5523 53.4477 60 54 60Z" fill="white"/>
<path d="M0 121C0 121.552 0.447715 122 1 122H4C4.55228 122 5 121.552 5 121C5 120.448 4.55228 120 4 120H1C0.447715 120 0 120.448 0 121Z" fill="white"/>
<path d="M10 121C10 121.552 10.4477 122 11 122H14C14.5523 122 15 121.552 15 121C15 120.448 14.5523 120 14 120H11C10.4477 120 10 120.448 10 121Z" fill="white"/>
<path d="M20 121C20 121.552 20.4477 122 21 122H24C24.5523 122 25 121.552 25 121C25 120.448 24.5523 120 24 120H21C20.4477 120 20 120.448 20 121Z" fill="white"/>
<path d="M40 121C40 121.552 40.4477 122 41 122H44C44.5523 122 45 121.552 45 121C45 120.448 44.5523 120 44 120H41C40.4477 120 40 120.448 40 121Z" fill="white"/>
<path d="M50 121C50 121.552 50.4477 122 51 122H54C54.5523 122 55 121.552 55 121C55 120.448 54.5523 120 54 120H51C50.4477 120 50 120.448 50 121Z" fill="white"/>
<path d="M1 55C0.447715 55 0 55.4477 0 56V59C0 59.5523 0.447715 60 1 60C1.55228 60 2 59.5523 2 59V56C2 55.4477 1.55228 55 1 55Z" fill="white"/>
<path d="M1 65C0.447715 65 0 65.4477 0 66V69C0 69.5523 0.447715 70 1 70C1.55228 70 2 69.5523 2 69V66C2 65.4477 1.55228 65 1 65Z" fill="white"/>
<path d="M1 75C0.447715 75 0 75.4477 0 76V79C0 79.5523 0.447715 80 1 80C1.55228 80 2 79.5523 2 79V76C2 75.4477 1.55228 75 1 75Z" fill="white"/>
<path d="M1 86C0.447715 86 0 86.4477 0 87V90C0 90.5523 0.447715 91 1 91C1.55228 91 2 90.5523 2 90V87C2 86.4477 1.55228 86 1 86Z" fill="white"/>
<path d="M1 117C0.447715 117 0 117.448 0 118V121C0 121.552 0.447715 122 1 122C1.55228 122 2 121.552 2 121V118C2 117.448 1.55228 117 1 117Z" fill="white"/>
<path d="M35 56C35 55.4477 34.5523 55 34 55H31C30.4477 55 30 55.4477 30 56C30 56.5523 30.4477 57 31 57H34C34.5523 57 35 56.5523 35 56Z" fill="white"/>
<path d="M30 121C30 121.552 30.4477 122 31 122H34C34.5523 122 35 121.552 35 121C35 120.448 34.5523 120 34 120H31C30.4477 120 30 120.448 30 121Z" fill="white"/>
<path d="M54 112C54.5523 112 55 111.552 55 111V108C55 107.448 54.5523 107 54 107C53.4477 107 53 107.448 53 108V111C53 111.552 53.4477 112 54 112Z" fill="white"/>
<path d="M54 102C54.5523 102 55 101.552 55 101V98C55 97.4477 54.5523 97 54 97C53.4477 97 53 97.4477 53 98V101C53 101.552 53.4477 102 54 102Z" fill="white"/>
<path d="M1 97C0.447715 97 0 97.4477 0 98V101C0 101.552 0.447715 102 1 102C1.55228 102 2 101.552 2 101V98C2 97.4477 1.55228 97 1 97Z" fill="white"/>
<path d="M1 107C0.447715 107 0 107.448 0 108V111C0 111.552 0.447715 112 1 112C1.55228 112 2 111.552 2 111V108C2 107.448 1.55228 107 1 107Z" fill="white"/>
<path d="M38.2812 79.3125H33.9688V77.1562C33.9688 77.1562 33.9688 77.1488 33.9688 77.1338C33.9688 77.1038 33.9688 77.0889 33.9688 77.0889C33.9688 77.0439 33.9613 77.0065 33.9463 76.9766C33.9463 76.9466 33.9313 76.9316 33.9014 76.9316C33.9014 76.9017 33.8864 76.8717 33.8564 76.8418C33.8415 76.8118 33.834 76.7969 33.834 76.7969C33.834 76.7969 33.819 76.7894 33.7891 76.7744C33.7591 76.7445 33.7441 76.7295 33.7441 76.7295C33.7142 76.6846 33.6768 76.6471 33.6318 76.6172C33.6019 76.5872 33.5719 76.5723 33.542 76.5723C33.4971 76.5124 33.4521 76.4749 33.4072 76.46C33.3773 76.445 33.3249 76.4375 33.25 76.4375H21.75C21.6751 76.4375 21.6152 76.445 21.5703 76.46C21.5404 76.46 21.5029 76.4749 21.458 76.5049C21.4281 76.5049 21.3906 76.5199 21.3457 76.5498C21.3158 76.5798 21.2858 76.6172 21.2559 76.6621C21.2559 76.6621 21.2409 76.6771 21.2109 76.707C21.181 76.722 21.166 76.7295 21.166 76.7295C21.1361 76.7594 21.1136 76.7969 21.0986 76.8418C21.0986 76.8717 21.0986 76.9017 21.0986 76.9316C21.0687 76.9316 21.0462 76.9466 21.0312 76.9766C21.0312 77.0065 21.0312 77.0439 21.0312 77.0889C21.0312 77.0889 21.0312 77.1038 21.0312 77.1338C21.0312 77.1488 21.0312 77.1562 21.0312 77.1562V79.3125H16.7188C16.5091 79.3125 16.3369 79.3799 16.2021 79.5146C16.0674 79.6494 16 79.8216 16 80.0312V98.7188C16 98.9284 16.0674 99.1006 16.2021 99.2354C16.3369 99.3701 16.5091 99.4375 16.7188 99.4375H38.2812C38.4909 99.4375 38.6631 99.3701 38.7979 99.2354C38.9326 99.1006 39 98.9284 39 98.7188V80.0312C39 79.8216 38.9326 79.6494 38.7979 79.5146C38.6631 79.3799 38.4909 79.3125 38.2812 79.3125ZM32.5312 84.4785L28.7129 82.1201L32.5312 78.7285V84.4785ZM31.3184 77.875L27.5 81.2441L23.6816 77.875H31.3184ZM22.4688 78.7285L26.2871 82.1201L22.4688 84.4785V78.7285ZM37.5625 98H17.4375V80.75H21.0312V85.7812C21.0312 85.931 21.0612 86.0583 21.1211 86.1631C21.196 86.2679 21.2858 86.3577 21.3906 86.4326C21.4954 86.5075 21.6152 86.5449 21.75 86.5449C21.8848 86.5449 22.0046 86.5075 22.1094 86.4326L26.7812 83.5576V87.9375C26.7812 88.1471 26.8486 88.3193 26.9834 88.4541C27.1182 88.5889 27.2904 88.6562 27.5 88.6562C27.7096 88.6562 27.8818 88.5889 28.0166 88.4541C28.1514 88.3193 28.2188 88.1471 28.2188 87.9375V83.4902L32.8906 86.3652C32.9655 86.3952 33.0254 86.4251 33.0703 86.4551C33.1152 86.485 33.1751 86.5 33.25 86.5C33.3249 86.5 33.3848 86.5 33.4297 86.5C33.4746 86.485 33.5345 86.4626 33.6094 86.4326C33.7142 86.3577 33.7965 86.2679 33.8564 86.1631C33.9313 86.0583 33.9688 85.931 33.9688 85.7812V80.75H37.5625V98Z" fill="white"/>
<path d="M95 1C95 0.447715 94.5523 0 94 0H91C90.4477 0 90 0.447715 90 1C90 1.55228 90.4477 2 91 2H94C94.5523 2 95 1.55228 95 1Z" fill="white"/>
<path d="M85 1C85 0.447715 84.5523 0 84 0H81C80.4477 0 80 0.447715 80 1C80 1.55228 80.4477 2 81 2H84C84.5523 2 85 1.55228 85 1Z" fill="white"/>
<path d="M65 1C65 0.447715 64.5523 0 64 0H61C60.4477 0 60 0.447715 60 1C60 1.55228 60.4477 2 61 2H64C64.5523 2 65 1.55228 65 1Z" fill="white"/>
<path d="M55 1C55 0.447715 54.5523 0 54 0H51C50.4477 0 50 0.447715 50 1C50 1.55228 50.4477 2 51 2H54C54.5523 2 55 1.55228 55 1Z" fill="white"/>
<path d="M45 1C45 0.447715 44.5523 0 44 0H41C40.4477 0 40 0.447715 40 1C40 1.55228 40.4477 2 41 2H44C44.5523 2 45 1.55228 45 1Z" fill="white"/>
<path d="M94 67C94.5523 67 95 66.5523 95 66V63C95 62.4477 94.5523 62 94 62C93.4477 62 93 62.4477 93 63V66C93 66.5523 93.4477 67 94 67Z" fill="white"/>
<path d="M94 36C94.5523 36 95 35.5523 95 35V32C95 31.4477 94.5523 31 94 31C93.4477 31 93 31.4477 93 32V35C93 35.5523 93.4477 36 94 36Z" fill="white"/>
<path d="M94 25C94.5523 25 95 24.5523 95 24V21C95 20.4477 94.5523 20 94 20C93.4477 20 93 20.4477 93 21V24C93 24.5523 93.4477 25 94 25Z" fill="white"/>
<path d="M94 15C94.5523 15 95 14.5523 95 14V11C95 10.4477 94.5523 10 94 10C93.4477 10 93 10.4477 93 11V14C93 14.5523 93.4477 15 94 15Z" fill="white"/>
<path d="M94 5C94.5523 5 95 4.55228 95 4V1C95 0.447715 94.5523 0 94 0C93.4477 0 93 0.447715 93 1V4C93 4.55228 93.4477 5 94 5Z" fill="white"/>
<path d="M60 66C60 66.5523 60.4477 67 61 67H64C64.5523 67 65 66.5523 65 66C65 65.4477 64.5523 65 64 65H61C60.4477 65 60 65.4477 60 66Z" fill="white"/>
<path d="M80 66C80 66.5523 80.4477 67 81 67H84C84.5523 67 85 66.5523 85 66C85 65.4477 84.5523 65 84 65H81C80.4477 65 80 65.4477 80 66Z" fill="white"/>
<path d="M90 66C90 66.5523 90.4477 67 91 67H94C94.5523 67 95 66.5523 95 66C95 65.4477 94.5523 65 94 65H91C90.4477 65 90 65.4477 90 66Z" fill="white"/>
<path d="M41 0C40.4477 0 40 0.447715 40 1V4C40 4.55228 40.4477 5 41 5C41.5523 5 42 4.55228 42 4V1C42 0.447715 41.5523 0 41 0Z" fill="white"/>
<path d="M41 10C40.4477 10 40 10.4477 40 11V14C40 14.5523 40.4477 15 41 15C41.5523 15 42 14.5523 42 14V11C42 10.4477 41.5523 10 41 10Z" fill="white"/>
<path d="M41 20C40.4477 20 40 20.4477 40 21V24C40 24.5523 40.4477 25 41 25C41.5523 25 42 24.5523 42 24V21C42 20.4477 41.5523 20 41 20Z" fill="white"/>
<path d="M41 31C40.4477 31 40 31.4477 40 32V35C40 35.5523 40.4477 36 41 36C41.5523 36 42 35.5523 42 35V32C42 31.4477 41.5523 31 41 31Z" fill="white"/>
<path d="M75 1C75 0.447715 74.5523 0 74 0H71C70.4477 0 70 0.447715 70 1C70 1.55228 70.4477 2 71 2H74C74.5523 2 75 1.55228 75 1Z" fill="white"/>
<path d="M70 66C70 66.5523 70.4477 67 71 67H74C74.5523 67 75 66.5523 75 66C75 65.4477 74.5523 65 74 65H71C70.4477 65 70 65.4477 70 66Z" fill="white"/>
<path d="M94 57C94.5523 57 95 56.5523 95 56V53C95 52.4477 94.5523 52 94 52C93.4477 52 93 52.4477 93 53V56C93 56.5523 93.4477 57 94 57Z" fill="white"/>
<path d="M94 47C94.5523 47 95 46.5523 95 46V43C95 42.4477 94.5523 42 94 42C93.4477 42 93 42.4477 93 43V46C93 46.5523 93.4477 47 94 47Z" fill="white"/>
<path d="M41 42C40.4477 42 40 42.4477 40 43V46C40 46.5523 40.4477 47 41 47C41.5523 47 42 46.5523 42 46V43C42 42.4477 41.5523 42 41 42Z" fill="white"/>
<path d="M41 52C40.4477 52 40 52.4477 40 53V56C40 56.5523 40.4477 57 41 57C41.5523 57 42 56.5523 42 56V53C42 52.4477 41.5523 52 41 52Z" fill="white"/>
<path d="M76.125 31.5H73.4746L67.208 26.6035C67.1331 26.5736 67.0583 26.5436 66.9834 26.5137C66.9235 26.4837 66.8561 26.4688 66.7812 26.4688H65.3438C65.194 26.4688 65.0667 26.5062 64.9619 26.5811C64.8571 26.6559 64.7673 26.7607 64.6924 26.8955C64.6924 26.8955 64.4678 27.1875 64.0186 27.7715C63.5843 28.3405 62.8281 28.625 61.75 28.625C60.7018 28.625 59.9531 28.348 59.5039 27.7939C59.0697 27.2399 58.8376 26.9404 58.8076 26.8955C58.7327 26.7607 58.6429 26.6559 58.5381 26.5811C58.4333 26.5062 58.306 26.4688 58.1562 26.4688H56.7188C56.5091 26.4688 56.3369 26.5361 56.2021 26.6709C56.0674 26.8057 56 26.9779 56 27.1875V37.25C56 37.8639 56.2021 38.3805 56.6064 38.7998C57.0257 39.2041 57.5423 39.4062 58.1562 39.4062H76.8438C77.4577 39.4062 77.9668 39.2041 78.3711 38.7998C78.7904 38.3805 79 37.8639 79 37.25V34.375C79 33.5814 78.7155 32.9076 78.1465 32.3535C77.5924 31.7845 76.9186 31.5 76.125 31.5ZM57.7295 27.9062C57.984 28.2656 58.4258 28.7148 59.0547 29.2539C59.6986 29.793 60.597 30.0625 61.75 30.0625C62.903 30.0625 63.7939 29.793 64.4229 29.2539C65.0667 28.7148 65.516 28.2656 65.7705 27.9062H66.5566L72.8232 32.8027C72.8981 32.8327 72.9655 32.8626 73.0254 32.8926C73.1003 32.9225 73.1751 32.9375 73.25 32.9375H76.125C76.5143 32.9375 76.8512 33.0798 77.1357 33.3643C77.4202 33.6488 77.5625 33.9857 77.5625 34.375V35.0938H57.4375V27.9062H57.7295ZM76.8438 37.9688H58.1562C57.9466 37.9688 57.7744 37.9014 57.6396 37.7666C57.5049 37.6318 57.4375 37.4596 57.4375 37.25V36.5312H77.5625V37.25C77.5625 37.4596 77.4951 37.6318 77.3604 37.7666C77.2256 37.9014 77.0534 37.9688 76.8438 37.9688Z" fill="white"/>
<defs>
<filter id="filter0_d" x="78" y="18" width="133" height="151" filterUnits="userSpaceOnUse" color-interpolation-filters="sRGB">
<feFlood flood-opacity="0" result="BackgroundImageFix"/>
<feColorMatrix in="SourceAlpha" type="matrix" values="0 0 0 0 0 0 0 0 0 0 0 0 0 0 0 0 0 0 255 0"/>
<feOffset dy="15"/>
<feGaussianBlur stdDeviation="15"/>
<feColorMatrix type="matrix" values="0 0 0 0 0.203922 0 0 0 0 0.192157 0 0 0 0 0.294118 0 0 0 0.2 0"/>
<feBlend mode="normal" in2="BackgroundImageFix" result="effect1_dropShadow"/>
<feBlend mode="normal" in="SourceGraphic" in2="effect1_dropShadow" result="shape"/>
</filter>
<filter id="filter1_d" x="182" y="34" width="115" height="67" filterUnits="userSpaceOnUse" color-interpolation-filters="sRGB">
<feFlood flood-opacity="0" result="BackgroundImageFix"/>
<feColorMatrix in="SourceAlpha" type="matrix" values="0 0 0 0 0 0 0 0 0 0 0 0 0 0 0 0 0 0 255 0"/>
<feOffset dy="15"/>
<feGaussianBlur stdDeviation="15"/>
<feColorMatrix type="matrix" values="0 0 0 0 0.203922 0 0 0 0 0.192157 0 0 0 0 0.294118 0 0 0 0.2 0"/>
<feBlend mode="normal" in2="BackgroundImageFix" result="effect1_dropShadow"/>
<feBlend mode="normal" in="SourceGraphic" in2="effect1_dropShadow" result="shape"/>
</filter>
<filter id="filter2_d" x="182" y="46" width="115" height="67" filterUnits="userSpaceOnUse" color-interpolation-filters="sRGB">
<feFlood flood-opacity="0" result="BackgroundImageFix"/>
<feColorMatrix in="SourceAlpha" type="matrix" values="0 0 0 0 0 0 0 0 0 0 0 0 0 0 0 0 0 0 255 0"/>
<feOffset dy="15"/>
<feGaussianBlur stdDeviation="15"/>
<feColorMatrix type="matrix" values="0 0 0 0 0.203922 0 0 0 0 0.192157 0 0 0 0 0.294118 0 0 0 0.2 0"/>
<feBlend mode="normal" in2="BackgroundImageFix" result="effect1_dropShadow"/>
<feBlend mode="normal" in="SourceGraphic" in2="effect1_dropShadow" result="shape"/>
</filter>
<filter id="filter3_d" x="182" y="58" width="92" height="67" filterUnits="userSpaceOnUse" color-interpolation-filters="sRGB">
<feFlood flood-opacity="0" result="BackgroundImageFix"/>
<feColorMatrix in="SourceAlpha" type="matrix" values="0 0 0 0 0 0 0 0 0 0 0 0 0 0 0 0 0 0 255 0"/>
<feOffset dy="15"/>
<feGaussianBlur stdDeviation="15"/>
<feColorMatrix type="matrix" values="0 0 0 0 0.203922 0 0 0 0 0.192157 0 0 0 0 0.294118 0 0 0 0.2 0"/>
<feBlend mode="normal" in2="BackgroundImageFix" result="effect1_dropShadow"/>
<feBlend mode="normal" in="SourceGraphic" in2="effect1_dropShadow" result="shape"/>
</filter>
<linearGradient id="paint0_linear" x1="110" y1="191" x2="197" y2="191" gradientUnits="userSpaceOnUse">
<stop stop-color="#FF8B8D"/>
<stop offset="1" stop-color="#AD73D5"/>
</linearGradient>
</defs>
</svg>
