<svg xmlns="http://www.w3.org/2000/svg" width="148" height="45" fill="none" viewBox="0 0 148 45"><rect width="148" height="45" fill="#000" fill-opacity="0"/><path fill="url(#paint0_linear)" d="M2.25615 12.006L17.7928 13.6467C17.8964 13.6467 18.1036 13.6467 18.2072 13.6467L33.7438 12.006C35.0904 11.9034 36.3333 13.1339 35.919 14.5695L31.8794 30.9763C31.7759 31.489 31.4651 31.8992 30.9472 32.2068L19.0358 39.6924C18.3107 40.1025 17.4821 40.1025 16.8606 39.6924L5.05276 32.2068C4.63845 31.8992 4.32771 31.489 4.12056 30.9763L0.0810165 14.5695C-0.333294 13.1339 0.909637 11.9034 2.25615 12.006ZM8.67799 27.6949L18 33.2322L27.322 27.6949L29.8079 17.7483L18 19.5941L6.19212 17.7483L8.67799 27.6949Z"/><path fill="#34314B" d="M40 33L41.16 19.52H44.54L46.42 24.4C46.74 25.2133 47.0133 25.96 47.24 26.64C47.4667 27.32 47.6133 27.8 47.68 28.08L47.78 28.48C47.9933 27.6 48.46 26.24 49.18 24.4L51.08 19.52H54.46L55.86 33H52.78L52.28 27.78L52.02 23.84C51.6733 24.84 51.1933 26.1533 50.58 27.78L48.68 32.86H46.86L44.98 27.78C44.6733 26.9533 44.4133 26.2133 44.2 25.56C43.9867 24.9067 43.8467 24.4533 43.78 24.2L43.68 23.84C43.68 24.7867 43.62 26.1 43.5 27.78L43.08 33H40ZM62.5316 33.16C60.9449 33.16 59.7182 32.6867 58.8516 31.74C57.9849 30.78 57.5516 29.5533 57.5516 28.06C57.5516 26.5 58.0049 25.22 58.9116 24.22C59.8182 23.2067 61.0249 22.7 62.5316 22.7C64.1049 22.7 65.3249 23.1867 66.1916 24.16C67.0582 25.1333 67.4916 26.3733 67.4916 27.88C67.4916 29.4133 67.0516 30.68 66.1716 31.68C65.3049 32.6667 64.0916 33.16 62.5316 33.16ZM62.5116 25C61.8716 25 61.3916 25.2733 61.0716 25.82C60.7516 26.3667 60.5916 27.0733 60.5916 27.94C60.5916 28.8067 60.7516 29.52 61.0716 30.08C61.4049 30.6267 61.8982 30.9 62.5516 30.9C63.1916 30.9 63.6649 30.6333 63.9716 30.1C64.2916 29.5533 64.4516 28.8467 64.4516 27.98C64.4516 25.9933 63.8049 25 62.5116 25ZM72.3192 22.86V24.58C72.5726 24.02 72.9592 23.58 73.4792 23.26C74.0126 22.9267 74.6459 22.76 75.3792 22.76C76.4192 22.76 77.2326 23.0733 77.8192 23.7C78.4059 24.3133 78.6992 25.22 78.6992 26.42V33H75.7792V26.96C75.7792 26.36 75.6392 25.9067 75.3592 25.6C75.0792 25.28 74.6859 25.12 74.1792 25.12C73.6459 25.12 73.1992 25.3333 72.8392 25.76C72.4926 26.1733 72.3192 26.8 72.3192 27.64V33H69.3992V22.86H72.3192ZM87.4008 23.16V25.66C86.6941 25.2467 85.8674 25.04 84.9208 25.04C84.5741 25.04 84.3074 25.1133 84.1208 25.26C83.9341 25.3933 83.8408 25.5667 83.8408 25.78C83.8408 25.9 83.8741 26.0133 83.9408 26.12C84.0074 26.2267 84.1141 26.3267 84.2608 26.42C84.4208 26.5133 84.5674 26.6 84.7008 26.68C84.8474 26.7467 85.0408 26.8333 85.2808 26.94C85.5341 27.0467 85.7341 27.14 85.8808 27.22C86.4941 27.54 86.9874 27.9133 87.3608 28.34C87.7341 28.7533 87.9208 29.2867 87.9208 29.94C87.9208 30.94 87.5608 31.7133 86.8408 32.26C86.1208 32.8067 85.1674 33.08 83.9808 33.08C82.7541 33.08 81.7274 32.8733 80.9008 32.46V29.86C81.8208 30.5 82.7941 30.82 83.8208 30.82C84.5541 30.82 84.9208 30.5867 84.9208 30.12C84.9208 30 84.8874 29.8867 84.8208 29.78C84.7541 29.6733 84.6408 29.5733 84.4808 29.48C84.3208 29.3867 84.1741 29.3133 84.0408 29.26C83.9074 29.1933 83.7141 29.1067 83.4608 29C83.2074 28.8933 83.0141 28.8067 82.8808 28.74C81.5341 28.1 80.8608 27.14 80.8608 25.86C80.8608 24.8733 81.2341 24.1067 81.9808 23.56C82.7408 23.0133 83.6808 22.74 84.8008 22.74C85.8408 22.74 86.7074 22.88 87.4008 23.16ZM93.0917 25V29.66C93.0917 30.02 93.1917 30.2933 93.3917 30.48C93.6051 30.6667 93.8784 30.76 94.2117 30.76C94.7451 30.76 95.2184 30.6267 95.6317 30.36V32.78C95.1384 32.9933 94.4717 33.1 93.6317 33.1C91.3251 33.1 90.1717 31.9467 90.1717 29.64V25H88.7117V22.86H90.1717V20.46H93.0917V22.86H95.4517V25H93.0917ZM100.327 22.86V24.74C100.513 24.1533 100.82 23.6867 101.247 23.34C101.687 22.98 102.193 22.8 102.767 22.8C103.087 22.8 103.34 22.8267 103.527 22.88V25.64C103.207 25.4933 102.84 25.42 102.427 25.42C101.8 25.42 101.293 25.6533 100.907 26.12C100.52 26.5733 100.327 27.18 100.327 27.94V33H97.4066L97.4266 22.86H100.327ZM109.309 33.16C107.722 33.16 106.496 32.6867 105.629 31.74C104.762 30.78 104.329 29.5533 104.329 28.06C104.329 26.5 104.782 25.22 105.689 24.22C106.596 23.2067 107.802 22.7 109.309 22.7C110.882 22.7 112.102 23.1867 112.969 24.16C113.836 25.1333 114.269 26.3733 114.269 27.88C114.269 29.4133 113.829 30.68 112.949 31.68C112.082 32.6667 110.869 33.16 109.309 33.16ZM109.289 25C108.649 25 108.169 25.2733 107.849 25.82C107.529 26.3667 107.369 27.0733 107.369 27.94C107.369 28.8067 107.529 29.52 107.849 30.08C108.182 30.6267 108.676 30.9 109.329 30.9C109.969 30.9 110.442 30.6333 110.749 30.1C111.069 29.5533 111.229 28.8467 111.229 27.98C111.229 25.9933 110.582 25 109.289 25ZM116.277 33V22.86H119.197V33H116.277ZM116.537 21.12C116.203 20.7867 116.037 20.3867 116.037 19.92C116.037 19.4533 116.203 19.0533 116.537 18.72C116.87 18.3867 117.27 18.22 117.737 18.22C118.203 18.22 118.603 18.3867 118.937 18.72C119.27 19.0533 119.437 19.4533 119.437 19.92C119.437 20.3867 119.27 20.7867 118.937 21.12C118.603 21.4533 118.203 21.62 117.737 21.62C117.27 21.62 116.87 21.4533 116.537 21.12ZM126.364 30.68C127.031 30.68 127.571 30.42 127.984 29.9C128.397 29.38 128.604 28.6867 128.604 27.82C128.604 26.98 128.377 26.3267 127.924 25.86C127.484 25.3933 126.957 25.16 126.344 25.16C125.731 25.16 125.211 25.4067 124.784 25.9C124.371 26.3933 124.164 27.08 124.164 27.96C124.164 28.7733 124.377 29.4333 124.804 29.94C125.231 30.4333 125.751 30.68 126.364 30.68ZM128.604 18.86H131.524V33H128.604V31.42C127.924 32.5533 126.911 33.12 125.564 33.12C124.244 33.12 123.184 32.6067 122.384 31.58C121.597 30.5533 121.204 29.3267 121.204 27.9C121.204 26.3 121.617 25.04 122.444 24.12C123.271 23.2 124.317 22.74 125.584 22.74C126.904 22.74 127.911 23.3 128.604 24.42V18.86Z"/><path fill="#1CEBBC" d="M141.68 18.52H146.32V21H137.6V18.74C139.04 17.7533 140.307 16.66 141.4 15.46C142.507 14.26 143.06 13.2 143.06 12.28C143.06 11.72 142.893 11.28 142.56 10.96C142.227 10.6267 141.72 10.46 141.04 10.46C139.907 10.46 138.833 10.88 137.82 11.72V8.9C138.26 8.58 138.833 8.30667 139.54 8.08C140.247 7.85333 140.94 7.74 141.62 7.74C142.98 7.74 144.06 8.1 144.86 8.82C145.673 9.52667 146.08 10.52 146.08 11.8C146.08 14.1067 144.613 16.3467 141.68 18.52Z"/><defs><linearGradient id="paint0_linear" x1="36" x2="0" y1="40" y2="40" gradientUnits="userSpaceOnUse"><stop stop-color="#64ECF5"/><stop offset="1" stop-color="#1CEBBC"/></linearGradient></defs></svg>